<svg width="140" height="128" viewBox="0 0 140 128" fill="none" xmlns="http://www.w3.org/2000/svg">
<path d="M42.4147 106.568L40.1272 108.551L39.0436 107.301L33.2851 112.292L34.3687 113.542L32.0813 115.525L27.2509 109.953L30.484 103.633L23.7924 105.963L19.2849 100.763L21.5723 98.7804L22.656 100.03L28.4145 95.0387L27.3308 93.7886L29.6183 91.8057L34.3103 97.2185L32.0229 99.2014L31.2966 98.3635L27.4398 101.707L35.5669 98.6681L37.1924 100.543L33.2421 108.696L37.2452 105.226L36.346 104.189L38.6334 102.206L42.4147 106.568ZM29.59 90.6945L26.7095 91.6255L26.2927 90.336L18.3159 90.4358L18.868 92.144L15.9875 93.075L13.3675 84.9694L22.5631 78.7972L22.1463 77.5077L25.0268 76.5766L27.3923 83.8951L24.5118 84.8262L24.1708 83.7711L22.8944 84.5721L23.8472 87.5196L25.3563 87.4387L24.8528 85.8813L27.7333 84.9502L29.59 90.6945ZM21.7357 87.7397L21.0428 85.596L17.3655 87.8389L21.7357 87.7397ZM25.1245 73.1269L22.0273 73.0706L22.0529 71.6628L14.5036 71.5257L14.4816 72.7399L16.8329 73.1522L16.7891 75.5631L11.4043 75.4653L11.638 62.6016L17.0228 62.6994L16.979 65.1103L14.6143 65.437L14.5916 66.6864L22.1408 66.8235L22.1664 65.4157L25.2635 65.472L25.1245 73.1269ZM26.4113 58.9527L23.488 57.928L23.9537 56.5993L16.8283 54.1017L16.4266 55.2478L18.53 56.3767L17.7324 58.6522L12.6499 56.8707L16.9056 44.7292L21.9881 46.5107L21.1906 48.7862L18.8426 48.3548L18.4293 49.5341L25.5547 52.0317L26.0205 50.7029L28.9438 51.7276L26.4113 58.9527ZM30.4294 47.7795L28.0735 45.8784L28.9356 44.8101L23.0048 40.0243L22.1427 41.0927L19.7868 39.1916L24.0836 33.8387L26.4532 35.7508L25.768 36.6L27.5212 38.0148L29.588 35.4534L27.8348 34.0387L27.1495 34.8879L24.78 32.9758L29.1042 27.645L31.4601 29.5461L30.598 30.6145L36.5288 35.4002L37.3909 34.3319L39.7467 36.2329L35.4362 41.5748L33.0803 39.6737L33.7656 38.8245L31.8754 37.2992L29.8086 39.8606L31.6988 41.3858L32.384 40.5366L34.7399 42.4377L30.4294 47.7795ZM41.5931 35.3052L39.8625 32.8215L40.9888 32.0366L36.6321 25.7839L35.5057 26.5687L33.7751 24.0849L39.6379 19.9998L41.3686 22.4836L40.2422 23.2684L44.599 29.5212L45.7253 28.7364L47.456 31.2201L41.5931 35.3052ZM48.8036 30.2915L47.72 27.4649L49.2648 26.8726L46.5368 19.7567L44.992 20.3489L43.9084 17.5223L54.6891 13.3894L56.6358 18.4675L54.5816 19.255L52.9461 17.2997L50.6453 18.1817L51.4454 20.2688L53.4997 19.4813L54.3061 21.5848L52.2518 22.3724L53.3733 25.2976L55.674 24.4156L55.4447 21.5065L57.499 20.7189L59.5843 26.1586L48.8036 30.2915ZM62.9099 24.3757C61.9501 23.3634 61.4086 21.8266 61.2853 19.7652L61.011 15.1797L59.6231 15.2627L59.4424 12.2409L66.8916 11.7954L67.0723 14.8172L65.8073 14.8929L66.1509 20.6379C66.1846 21.2001 66.3497 21.6516 66.6463 21.9923C66.9429 22.3331 67.384 22.486 67.9697 22.451C68.4616 22.4215 68.8423 22.2519 69.1117 21.9419C69.3812 21.6319 69.5008 21.2251 69.4707 20.7214L69.1103 14.6953L67.7048 14.7794L67.524 11.7576L73.1285 11.4224L73.3092 14.4442L71.9916 14.523L72.3446 20.4261C72.4427 22.0659 72.0366 23.3332 71.1262 24.2281C70.2159 25.123 68.976 25.6174 67.4065 25.7113C65.3685 25.8331 63.8696 25.388 62.9099 24.3757ZM80.0903 23.0118L81.642 23.5856L84.2856 16.4379L82.9485 15.9434L84.0047 13.0876L90.5581 15.5114C91.6366 15.9102 92.512 16.3341 93.1842 16.7828C93.8564 17.2316 94.3183 17.784 94.5698 18.44C94.8213 19.096 94.7782 19.8807 94.4404 20.7941C94.2043 21.4324 93.8144 21.92 93.2708 22.2568C92.7271 22.5937 92.1304 22.7609 91.4809 22.7583C92.1112 23.3542 92.5105 23.9742 92.6789 24.6182C92.8473 25.2622 92.7667 26.0299 92.437 26.9213C92.034 28.0108 91.2962 28.6949 90.2236 28.9738C89.1509 29.2526 87.8332 29.1031 86.2705 28.5251L79.0403 25.851L80.0903 23.0118ZM87.9973 20.4566C88.6136 20.6845 89.0991 20.7671 89.4538 20.7044C89.8085 20.6417 90.0734 20.3737 90.2484 19.9005C90.3705 19.5704 90.3674 19.2659 90.2391 18.987C90.1108 18.7081 89.8816 18.5076 89.5514 18.3855L88.4124 17.9642L87.5516 20.2918L87.9973 20.4566ZM86.066 25.2218C86.7153 25.462 87.2496 25.5564 87.6689 25.505C88.0883 25.4537 88.4037 25.1419 88.6154 24.5696C88.941 23.6892 88.5646 23.0496 87.4861 22.6507C87.244 22.5612 87.0053 22.4792 86.7701 22.4047L85.7689 25.1119L86.066 25.2218ZM95.7001 32.6367C95.2893 31.5045 95.2184 30.3528 95.4874 29.1816C95.7563 28.0105 96.3285 26.8962 97.204 25.8387C98.1094 24.7452 99.1105 23.9593 100.207 23.481C101.304 23.0028 102.435 22.8692 103.601 23.0803C104.766 23.2914 105.905 23.8572 107.017 24.7776C108.128 25.6979 108.897 26.7111 109.322 27.8169C109.747 28.9228 109.827 30.059 109.561 31.2257C109.296 32.3923 108.711 33.5225 107.805 34.616C106.93 35.6735 105.942 36.4436 104.842 36.9263C103.741 37.4091 102.596 37.5543 101.408 37.3621C100.219 37.1698 99.0728 36.6172 97.9701 35.7043C96.8675 34.7914 96.1108 33.7689 95.7001 32.6367ZM101.728 33.4005C102.46 33.0316 103.227 32.3637 104.027 31.3966C104.806 30.4567 105.299 29.6123 105.508 28.8635C105.716 28.1146 105.572 27.5344 105.075 27.1229C104.578 26.7113 103.981 26.6779 103.284 27.0227C102.588 27.3674 101.85 28.0098 101.072 28.9497C100.271 29.9168 99.758 30.7943 99.5322 31.5822C99.3063 32.3702 99.4329 32.9624 99.9119 33.359C100.391 33.7556 100.996 33.7694 101.728 33.4005ZM104.8 41.3631L107.464 39.8173L108.162 41.0199L114.723 37.2126L114.043 36.0405L116.661 34.5211L119.832 39.9861L114.946 47.7664L119.345 45.2135L118.656 44.0261L121.274 42.5068L124.022 47.2411L121.403 48.7605L120.723 47.5883L111.513 52.9326L108.899 48.4266L113.389 41.1205L109.522 43.3642L110.211 44.5516L107.547 46.0975L104.8 41.3631ZM113.159 58.9962C113.272 58.5458 113.461 58.1541 113.726 57.8212L112.73 57.7114L112.245 55.4574L117.665 54.2911L118.187 56.7172C117.372 56.8924 116.792 57.0954 116.446 57.3259C116.099 57.5565 115.975 57.9012 116.074 58.3601C116.158 58.7501 116.409 59.0232 116.826 59.1793C117.244 59.3355 117.699 59.3605 118.193 59.2544L123.802 58.0474L123.454 56.4299L126.431 55.7894L127.993 63.0505L125.016 63.691L124.728 62.3489L118.31 63.73C117.013 64.0089 115.901 63.8582 114.972 63.278C114.043 62.6978 113.439 61.7596 113.16 60.4633C113.046 59.9357 113.046 59.4466 113.159 58.9962ZM115.306 70.4302C116.012 69.4544 116.925 68.7487 118.044 68.3132C119.164 67.8778 120.408 67.7251 121.774 67.8553C123.188 67.99 124.4 68.3766 125.412 69.0152C126.424 69.6538 127.17 70.5146 127.65 71.5976C128.13 72.6806 128.302 73.9404 128.165 75.3771C128.028 76.8138 127.622 78.0186 126.945 78.9914C126.269 79.9642 125.374 80.6686 124.26 81.1046C123.146 81.5407 121.882 81.6913 120.469 81.5567C119.102 81.4265 117.91 81.0418 116.893 80.4026C115.875 79.7635 115.112 78.8981 114.603 77.8065C114.094 76.7149 113.907 75.4566 114.043 74.0316C114.179 72.6065 114.6 71.4061 115.306 70.4302ZM118.06 75.8464C118.777 76.2447 119.76 76.5034 121.01 76.6225C122.225 76.7382 123.2 76.6721 123.937 76.424C124.674 76.176 125.073 75.7307 125.134 75.0883C125.195 74.4459 124.887 73.9333 124.211 73.5506C123.534 73.1679 122.588 72.9187 121.374 72.8029C120.124 72.6838 119.11 72.7522 118.331 73.008C117.552 73.2639 117.133 73.7013 117.074 74.3204C117.015 74.9394 117.344 75.4481 118.06 75.8464ZM113.332 85.5487C114.678 85.1821 116.288 85.4321 118.162 86.2988L122.332 88.2266L122.915 86.9645L125.663 88.235L122.531 95.0085L119.784 93.7381L120.315 92.5878L115.091 90.1725C114.58 89.9362 114.104 89.868 113.664 89.9681C113.223 90.0682 112.88 90.3845 112.634 90.917C112.427 91.3643 112.396 91.78 112.542 92.1641C112.688 92.5481 112.989 92.846 113.447 93.0577L118.927 95.5912L119.518 94.3132L122.265 95.5836L119.909 100.68L117.161 99.4093L117.715 98.2112L112.348 95.7294C110.857 95.04 109.932 94.0826 109.575 92.8572C109.217 91.6318 109.368 90.3055 110.028 88.8784C110.885 87.0253 111.986 85.9154 113.332 85.5487ZM108.568 98.574L107.611 99.5584L113.076 104.87L114.033 103.886L116.204 105.995L110.083 112.293C109.093 113.311 108.159 113.86 107.281 113.939C106.402 114.018 105.488 113.595 104.537 112.671C103.897 112.05 103.579 111.392 103.582 110.699C103.584 110.007 103.846 109.275 104.366 108.504C103.701 109.003 103.067 109.213 102.464 109.135C101.861 109.056 101.299 108.763 100.778 108.256L99.9824 107.483L98.6453 108.859L96.4366 106.712L98.3625 104.731C98.984 104.091 99.4718 103.674 99.8258 103.478C100.18 103.282 100.618 103.294 101.139 103.515C101.661 103.736 102.364 104.276 103.247 105.134C103.752 105.625 104.206 105.907 104.61 105.98C105.013 106.053 105.428 105.871 105.853 105.433L106.577 104.689L104.545 102.714L103.588 103.698L101.417 101.588L106.397 96.4641L108.568 98.574ZM107.156 106.896C106.722 107.342 106.479 107.752 106.426 108.126C106.374 108.5 106.549 108.884 106.953 109.276C107.248 109.562 107.587 109.676 107.972 109.616C108.357 109.557 108.722 109.35 109.065 108.997L110.01 108.025L107.978 106.05L107.156 106.896Z" fill="url(#paint0_linear_21_533)"/>
<mask id="mask0_21_533" style="mask-type:luminance" maskUnits="userSpaceOnUse" x="38" y="38" width="64" height="64">
<path d="M38.3138 38.7109H101.343V101.369H38.3138V38.7109Z" fill="white"/>
</mask>
<g mask="url(#mask0_21_533)">
<mask id="mask1_21_533" style="mask-type:luminance" maskUnits="userSpaceOnUse" x="38" y="38" width="64" height="64">
<path d="M38.3138 38.7109H101.343V101.369H38.3138V38.7109Z" fill="white"/>
</mask>
<g mask="url(#mask1_21_533)">
<path d="M54.0841 60.7568C57.1189 55.8 62.336 52.5879 68.1284 52.11C68.8417 52.0535 69.4843 51.6575 69.8555 51.0458C70.1012 50.6442 70.2126 50.1748 70.1737 49.7056C70.0731 48.4772 68.9966 47.5625 67.7681 47.6614C60.552 48.254 54.0517 52.2541 50.2707 58.4288C49.9625 58.9342 49.8677 59.5413 50.0072 60.1166C50.1467 60.6918 50.5091 61.1881 51.0145 61.4962C52.0665 62.1383 53.4399 61.8075 54.0841 60.7568Z" fill="#A3DEE7"/>
</g>
<mask id="mask2_21_533" style="mask-type:luminance" maskUnits="userSpaceOnUse" x="38" y="38" width="64" height="64">
<path d="M38.3138 38.7109H101.343V101.369H38.3138V38.7109Z" fill="white"/>
</mask>
<g mask="url(#mask2_21_533)">
<path d="M49.6676 66.7285C48.4373 66.6753 47.3959 67.6279 47.3396 68.8581C47.1976 71.8678 47.6632 74.8752 48.7087 77.701C48.9132 78.2564 49.3302 78.7076 49.8678 78.9553C50.4053 79.203 51.0193 79.2267 51.5743 79.0213C51.8288 78.9282 52.064 78.7891 52.2683 78.6112C52.9668 78.0017 53.2161 77.0241 52.8946 76.1546C52.058 73.8869 51.686 71.4742 51.8005 69.0598C51.8275 68.4677 51.6179 67.889 51.2177 67.4517C50.8176 67.0143 50.2598 66.7541 49.6676 66.7285Z" fill="#A3DEE7"/>
</g>
<mask id="mask3_21_533" style="mask-type:luminance" maskUnits="userSpaceOnUse" x="38" y="38" width="64" height="64">
<path d="M38.3138 38.7109H101.343V101.369H38.3138V38.7109Z" fill="white"/>
</mask>
<g mask="url(#mask3_21_533)">
<path d="M58.3964 83.9045C57.9405 83.5259 57.3525 83.3448 56.7625 83.4012C56.1726 83.4576 55.6296 83.7468 55.2536 84.2049C54.4719 85.1585 54.6087 86.5649 55.5596 87.3499C59.9674 90.9801 65.5885 92.8026 71.2878 92.4493C76.281 92.1654 81.0353 90.2176 84.7922 86.9165C88.9121 83.3258 91.5903 78.3632 92.3304 72.9486C92.4106 72.3619 92.2543 71.7675 91.8961 71.2959C91.5379 70.8244 91.0071 70.5145 90.4204 70.4344C89.1994 70.2681 88.0741 71.1216 87.9051 72.3423C87.3109 76.6892 85.1603 80.6732 81.8524 83.5553C78.8387 86.2054 75.024 87.7693 71.0173 87.9973C66.4441 88.2787 61.9342 86.8162 58.3964 83.9045Z" fill="#3DBDD9"/>
</g>
<mask id="mask4_21_533" style="mask-type:luminance" maskUnits="userSpaceOnUse" x="38" y="38" width="64" height="64">
<path d="M38.3138 38.7109H101.343V101.369H38.3138V38.7109Z" fill="white"/>
</mask>
<g mask="url(#mask4_21_533)">
<path d="M77.6986 44.6439C80.071 45.1066 82.3261 46.0415 84.33 47.3931C85.3534 48.08 86.7398 47.8075 87.4273 46.7845C87.7592 46.2925 87.8816 45.6886 87.7674 45.1062C87.6533 44.5237 87.3119 44.0107 86.8187 43.6805C84.3205 41.9965 81.5087 40.833 78.5511 40.2595C77.9701 40.1454 77.3677 40.2673 76.8768 40.5982C76.3859 40.9291 76.0469 41.4419 75.9349 42.0232C75.882 42.289 75.8782 42.5621 75.9238 42.8292C76.0805 43.7442 76.7872 44.4668 77.6986 44.6439Z" fill="#A3DEE7"/>
</g>
<mask id="mask5_21_533" style="mask-type:luminance" maskUnits="userSpaceOnUse" x="38" y="38" width="64" height="64">
<path d="M38.3138 38.7109H101.343V101.369H38.3138V38.7109Z" fill="white"/>
</mask>
<g mask="url(#mask5_21_533)">
<path d="M76.712 52.7873C81.7373 54.9438 85.5195 59.2549 87.0038 64.5181C87.2209 65.2002 87.7525 65.7364 88.4328 65.9592C88.8805 66.1051 89.363 66.1051 89.8107 65.9592C90.9829 65.5804 91.6274 64.3244 91.2518 63.1512C89.0447 56.2715 85.1204 51.6699 78.5422 48.7101C78.0024 48.4671 77.3882 48.4486 76.8348 48.6586C76.2814 48.8686 75.834 49.2899 75.5912 49.8297C75.3466 50.3704 75.3273 50.9863 75.5376 51.5412C75.7479 52.0962 76.1704 52.5446 76.712 52.7873Z" fill="#A3DEE7"/>
</g>
<mask id="mask6_21_533" style="mask-type:luminance" maskUnits="userSpaceOnUse" x="38" y="38" width="64" height="64">
<path d="M38.3138 38.7109H101.343V101.369H38.3138V38.7109Z" fill="white"/>
</mask>
<g mask="url(#mask6_21_533)">
<path d="M93.0011 88.2534C92.7937 88.0789 92.5558 87.9444 92.2994 87.8565C91.4228 87.5575 90.4526 87.8305 89.8606 88.5427C88.3144 90.4003 86.4106 91.9283 84.2623 93.0357C83.1679 93.6028 82.7401 94.9496 83.3068 96.0443C83.5791 96.5705 84.0494 96.9668 84.6142 97.1461C85.1789 97.3253 85.7917 97.2727 86.3176 96.9999C88.9951 95.619 91.3672 93.7132 93.2926 91.3961C93.6714 90.941 93.8535 90.3539 93.7988 89.7643C93.7441 89.1747 93.4571 88.6311 93.0011 88.2534Z" fill="#A3DEE7"/>
</g>
<mask id="mask7_21_533" style="mask-type:luminance" maskUnits="userSpaceOnUse" x="38" y="38" width="64" height="64">
<path d="M38.3138 38.7109H101.343V101.369H38.3138V38.7109Z" fill="white"/>
</mask>
<g mask="url(#mask7_21_533)">
<path d="M100.313 61.8387C99.1301 57.3663 96.9816 53.2075 94.0188 49.6546C93.2263 48.7125 91.8221 48.5868 90.8749 49.373C89.9289 50.1629 89.8014 51.5697 90.59 52.5169C93.1333 55.5653 94.978 59.1339 95.9942 62.9717C96.6152 65.3436 96.9116 67.7888 96.8755 70.2405C96.8322 73.7803 96.09 77.2767 94.6917 80.529C94.2043 81.6619 94.7273 82.9755 95.8601 83.4633C96.1278 83.5796 96.4162 83.6411 96.7081 83.644C97.6131 83.6586 98.437 83.1246 98.7933 82.2927C100.424 78.503 101.29 74.4288 101.343 70.3036C101.386 67.4483 101.039 64.6005 100.313 61.8387Z" fill="#3DBDD9"/>
</g>
<mask id="mask8_21_533" style="mask-type:luminance" maskUnits="userSpaceOnUse" x="38" y="38" width="64" height="64">
<path d="M38.3138 38.7109H101.343V101.369H38.3138V38.7109Z" fill="white"/>
</mask>
<g mask="url(#mask8_21_533)">
<path d="M74.9516 96.4201C73.1367 96.7656 71.2916 96.9271 69.4443 96.9023C54.5135 96.6726 42.5862 84.4002 42.7824 69.4689C42.7997 68.2366 41.8152 67.2234 40.583 67.2052C39.35 67.1879 38.336 68.1727 38.3171 69.4057C38.0895 86.8012 51.9862 101.098 69.3811 101.364C71.5326 101.396 73.6818 101.208 75.7952 100.803C76.377 100.693 76.8909 100.355 77.2236 99.8653C77.5564 99.3753 77.6806 98.7732 77.5689 98.1916C77.4583 97.6087 77.1199 97.094 76.6287 96.7615C76.1374 96.429 75.5338 96.3061 74.9516 96.4201Z" fill="#A3DEE7"/>
</g>
<mask id="mask9_21_533" style="mask-type:luminance" maskUnits="userSpaceOnUse" x="38" y="38" width="64" height="64">
<path d="M38.3138 38.7109H101.343V101.369H38.3138V38.7109Z" fill="white"/>
</mask>
<g mask="url(#mask9_21_533)">
<path d="M42.1283 62.4828C43.3628 62.4822 44.3632 61.4813 44.3632 60.2468C44.3626 59.0128 43.3623 58.0126 42.1283 58.012C40.8939 58.012 39.893 59.0124 39.8924 60.2468C39.8924 60.8398 40.1279 61.4086 40.5473 61.8279C40.9666 62.2472 41.5353 62.4828 42.1283 62.4828Z" fill="#A3DEE7"/>
</g>
<mask id="mask10_21_533" style="mask-type:luminance" maskUnits="userSpaceOnUse" x="38" y="38" width="64" height="64">
<path d="M38.3138 38.7109H101.343V101.369H38.3138V38.7109Z" fill="white"/>
</mask>
<g mask="url(#mask10_21_533)">
<path d="M80.041 69.4412C81.2754 69.4406 82.2758 68.4397 82.2758 67.2052C82.2752 65.9712 81.275 64.971 80.041 64.9704C78.8065 64.9704 77.8056 65.9708 77.805 67.2052C77.805 67.7982 78.0406 68.367 78.4599 68.7863C78.8792 69.2056 79.4479 69.4412 80.041 69.4412Z" fill="#3DBDD9"/>
</g>
<mask id="mask11_21_533" style="mask-type:luminance" maskUnits="userSpaceOnUse" x="38" y="38" width="64" height="64">
<path d="M38.3138 38.7109H101.343V101.369H38.3138V38.7109Z" fill="white"/>
</mask>
<g mask="url(#mask11_21_533)">
<path d="M44.7478 54.2595C45.1599 54.5757 45.6701 54.7366 46.189 54.714C46.853 54.6895 47.471 54.3685 47.8729 53.8394C52.7474 47.4108 60.2413 43.499 68.3025 43.175C68.8942 43.1511 69.4521 42.8929 69.8532 42.4572C70.2544 42.0216 70.4658 41.4443 70.4409 40.8526C70.3904 39.6207 69.3515 38.6626 68.1195 38.712C58.7289 39.0881 49.9989 43.6456 44.3222 51.1356C43.964 51.6062 43.8077 52.1998 43.8875 52.7858C43.9674 53.3717 44.2769 53.9019 44.7478 54.2595Z" fill="#3DBDD9"/>
</g>
<mask id="mask12_21_533" style="mask-type:luminance" maskUnits="userSpaceOnUse" x="38" y="38" width="64" height="64">
<path d="M38.3138 38.7109H101.343V101.369H38.3138V38.7109Z" fill="white"/>
</mask>
<g mask="url(#mask12_21_533)">
<path d="M80.6917 72.0031C80.4402 71.9012 80.1715 71.8489 79.9002 71.849C79.04 71.8476 78.2654 72.3694 77.9436 73.167C77.5439 74.2494 76.8765 75.2128 76.0036 75.9673C75.3997 76.5246 74.7232 76.9978 73.9927 77.374C72.9396 77.9187 71.7896 78.2505 70.6082 78.3507C70.0479 78.3938 69.5284 78.6607 69.1671 79.0912C68.8041 79.5168 68.6268 80.0703 68.6749 80.6276C68.6953 80.904 68.7707 81.1734 68.8966 81.4203C69.2575 82.1229 69.9813 82.5646 70.7712 82.5643C70.8311 82.5643 70.892 82.5643 70.9508 82.5565C72.6835 82.4112 74.3704 81.9252 75.9149 81.1265C76.9853 80.5763 77.9758 79.883 78.8592 79.0657C80.1875 77.8893 81.2121 76.4096 81.8457 74.7523C82.2828 73.6745 81.7671 72.446 80.6917 72.0031Z" fill="#A3DEE7"/>
</g>
<mask id="mask13_21_533" style="mask-type:luminance" maskUnits="userSpaceOnUse" x="38" y="38" width="64" height="64">
<path d="M38.3138 38.7109H101.343V101.369H38.3138V38.7109Z" fill="white"/>
</mask>
<g mask="url(#mask13_21_533)">
<path d="M64.7296 77.4483C64.2201 77.0944 63.7477 76.6899 63.3195 76.2411C59.8724 72.6158 60.0107 66.8842 63.6288 63.4295C64.4715 62.6252 64.5037 61.2904 63.7008 60.4464C63.3015 60.0287 62.7489 59.792 62.171 59.7912C61.6307 59.7907 61.1107 59.9978 60.7188 60.3699C55.4185 65.4356 55.2162 73.8349 60.2665 79.1499C60.8915 79.8058 61.5817 80.3964 62.3262 80.9125C62.6786 81.1586 63.0981 81.2902 63.5279 81.2894C64.2213 81.2908 64.8709 80.9509 65.265 80.3804C65.5849 79.9196 65.7078 79.3502 65.6064 78.7985C65.5054 78.2497 65.1898 77.7638 64.7296 77.4483Z" fill="#3DBDD9"/>
</g>
<mask id="mask14_21_533" style="mask-type:luminance" maskUnits="userSpaceOnUse" x="38" y="38" width="64" height="64">
<path d="M38.3138 38.7109H101.343V101.369H38.3138V38.7109Z" fill="white"/>
</mask>
<g mask="url(#mask14_21_533)">
<path d="M75.3607 62.9949C75.7501 63.3632 76.2658 63.5683 76.8018 63.568C77.3842 63.5669 77.9406 63.3264 78.3405 62.9029C79.1379 62.0528 79.0962 60.7175 78.2473 59.9187C75.9518 57.7192 72.8579 56.552 69.6815 56.6872C69.1223 56.6876 68.5636 56.7224 68.0087 56.7914C66.8525 56.9367 66.0322 57.9906 66.1751 59.1471C66.2367 59.635 66.4664 60.0863 66.8248 60.4231C67.2142 60.7915 67.7298 60.997 68.2659 60.9973C68.3541 60.9968 68.4422 60.9912 68.5297 60.9807C68.9092 60.9329 69.2913 60.9088 69.6738 60.9086C71.7785 60.7726 73.8432 61.5301 75.3607 62.9949Z" fill="#A3DEE7"/>
</g>
</g>
<defs>
<linearGradient id="paint0_linear_21_533" x1="11.4043" y1="11.4224" x2="114.821" y2="127.459" gradientUnits="userSpaceOnUse">
<stop stop-color="#43DAEE"/>
<stop offset="1" stop-color="#A3DEE7"/>
</linearGradient>
</defs>
</svg>
