<svg xmlns="http://www.w3.org/2000/svg" version="1.1" xmlns:xlink="http://www.w3.org/1999/xlink" viewBox="0 0 8.966155689617889 7.49103320266617"><g transform="matrix(1,0,0,1,2.1764943199818294,3.0590858166234183)"><g><path d=" M -0.730158170460809 2.297822892938823 Q -0.7246178846888729 2.295519583674898 -0.7234662300569105 2.298289726560866 Q -0.7100302593506813 2.3306080602304933 -0.702892057888933 2.3503829453095904 L -0.6742563032972183 2.4218671642600906 L -0.6387832833763538 2.5045875659618106 Q -0.6309499746225895 2.5208245384002983 -0.6190495434256437 2.549449348221968 Q -0.6178978887936812 2.552219491107936 -0.6234381745656172 2.5545228003718607 Q -0.6289784603375533 2.556826109635786 -0.6301301149695159 2.554055966749818 Q -0.6443338554303867 2.5198908711562122 -0.6554768031547875 2.5061128191889974 Q -0.6666197508791885 2.4923347672217826 -0.6818503936109643 2.492168869732338 Q -0.6970810363427401 2.492002972242894 -0.7257058461644098 2.50390340343984 L -0.9380834674219592 2.5921969252236314 L -0.8140886520473299 2.89044897594619 L -0.6017110307897806 2.8021554541623983 Q -0.5740096019301002 2.7906389078427734 -0.5629238872451797 2.779532291349685 Q -0.5518381725602592 2.768425674856597 -0.5537473106647667 2.750808774116174 Q -0.5556564487692741 2.733191873375751 -0.5698601892301449 2.6990267777821453 Q -0.5706279589847866 2.6971800158581662 -0.5650876732128506 2.6948767065942416 Q -0.5595473874409145 2.6925733973303165 -0.5587796176862728 2.694420159254295 Q -0.5453436469800437 2.7267384929239222 -0.5382054455182954 2.7465133780030193 L -0.5057308421533723 2.827231406573413 L -0.47601609539232037 2.896101093845293 Q -0.4674150168839144 2.9141848282077594 -0.4539790461776852 2.9465031618773865 Q -0.45321127642304354 2.948349923801365 -0.4587515621949796 2.95065323306529 Q -0.4642918479669157 2.952956542329215 -0.46505961772155735 2.951109780405236 Q -0.4784955884277865 2.918791446735609 -0.48925465127486656 2.905936775730384 Q -0.5000137141219466 2.8930821047251585 -0.5157060473347171 2.8931081496743745 Q -0.5313983805474877 2.8931341946235904 -0.559099809407168 2.9046507409432154 L -0.9866251948082349 3.0823894391427618 Q -1.0143266236679152 3.0939059854623867 -1.024950647871841 3.104820659516814 Q -1.0355746720757668 3.115735333571242 -1.0347030517682354 3.1321591053073417 Q -1.0338314314607038 3.1485828770434408 -1.0207793456317955 3.1799778297510786 Q -1.019627690999833 3.182747972637047 -1.025167976771769 3.1850512819009715 Q -1.0307082625437052 3.1873545911648966 -1.0318599171756677 3.1845844482789287 L -1.0516663195890033 3.134337991454183 Q -1.0674782620217829 3.091094697448032 -1.0782270385867663 3.06524003051233 Q -1.0928146639249579 3.0301515539567347 -1.1138556697149784 2.9847502756119093 L -1.1358927189296135 2.934348207579816 Q -1.1366604886842553 2.9325014456558374 -1.131120202912319 2.9301981363919123 Q -1.125579917140383 2.927894827127987 -1.1248121473857413 2.9297415890519662 Q -1.1109922918021913 2.9629833036835826 -1.0989259631158013 2.9763774707734765 Q -1.0868596344294108 2.9897716378633703 -1.07097535877798 2.990207283395149 Q -1.0550910831265492 2.9906429289269276 -1.0273896542668686 2.9791263826073027 L -0.8399433189830317 2.901197752511173 L -0.9639381343576608 2.602945701788615 L -1.1513844696414979 2.680874331884744 Q -1.1790858985011785 2.6923908782043693 -1.1901716131860989 2.7034974946974573 Q -1.2012573278710192 2.7146041111905452 -1.2002715707285012 2.732604896808289 Q -1.1992858135859832 2.750605682426033 -1.1850820731251122 2.784770778019639 Q -1.1839304184931498 2.787540920905607 -1.1894707042650858 2.789844230169532 Q -1.1950109900370218 2.792147539433457 -1.1961626446689844 2.789377396547489 L -1.214049622695716 2.7437478445326904 Q -1.231397104637779 2.6968110266785814 -1.2467524997306123 2.6598757881990074 Q -1.2571173914182747 2.634944502225295 -1.278158397208295 2.5895432238804696 L -1.3005793313002512 2.538217774886387 Q -1.3017309859322137 2.535447632000419 -1.2961907001602777 2.533144322736494 Q -1.2906504143883415 2.530841013472569 -1.2894987597563792 2.533611156358537 Q -1.2764466739274707 2.5650061090661747 -1.2650339781607354 2.5781305281137343 Q -1.2536212823940005 2.591254947161294 -1.238582582100885 2.590959154169744 Q -1.2235438818077695 2.5906633611781933 -1.195842452948089 2.5791468148585683 L -0.7683170675470223 2.4014081166590224 Q -0.740615638687342 2.3898915703393975 -0.7293379815637611 2.3792466443273037 Q -0.7180603244401802 2.3686017183152104 -0.7195855776673667 2.3519081985367767 Q -0.7211108308945534 2.335214678758343 -0.7345468016007826 2.302896345088716 Q -0.7356984562327451 2.300126202202748 -0.730158170460809 2.297822892938823 M -0.9783563506787236 1.7760338734390393 Q -0.9788824988087614 1.7730803724410273 -0.9778442050847868 1.7703560475443318 Q -0.9768059113608123 1.7676317226476363 -0.9758214110281416 1.7674563399376237 Q -0.8972765579797041 1.7636214918833502 -0.8342685366887816 1.7523969984425458 Q -0.8263925340274163 1.7509939367624452 -0.8224206347330313 1.7533335982754132 Q -0.8184487354386463 1.7556732597883813 -0.8168702910485331 1.7645337627824174 L -0.7393511332229785 2.199682909822851 Q -0.7388249850929408 2.2026364108208627 -0.7447319870889647 2.2036887070809383 Q -0.7506389890849887 2.2047410033410135 -0.7511651372150264 2.2017875023430014 Q -0.7567773839354286 2.1702834916975404 -0.7642429348939641 2.1568851504238786 Q -0.7717084858524996 2.143486809150217 -0.7868606542262871 2.1411073567820456 Q -0.8020128226000746 2.1387279044138747 -0.8315478325801945 2.1439893857142516 L -1.287371486606712 2.22519158045007 Q -1.316906496586832 2.230453061750447 -1.3298125876941582 2.2378309213539764 Q -1.3427186788014849 2.2452087809575056 -1.345502689980985 2.260940890852635 Q -1.348286701160485 2.276673000747764 -1.3428498371500956 2.3071925110605545 Q -1.3423236890200578 2.310146012058566 -1.3482306910160817 2.311198308318642 Q -1.3541376930121056 2.312250604578717 -1.3546638411421434 2.3092971035807053 L -1.429026110187472 1.8918689625283438 Q -1.4307799372875976 1.882023959201637 -1.4219194342935615 1.880445514811524 L -1.2913316554683885 1.8551506137145113 Q -1.289362654803047 1.854799848294486 -1.2874135495653074 1.8600392174141622 Q -1.2854644443275673 1.8652785865338384 -1.288242562615567 1.8667892349965465 Q -1.3425374585502645 1.892713437500006 -1.3634389248845653 1.9350351660218432 Q -1.3843403912188665 1.9773568945436804 -1.3734666631980872 2.0383959151692617 L -1.3682051818977103 2.0679309251493816 Q -1.3629437005973333 2.0974659351295015 -1.3476898383324387 2.1089689645567273 Q -1.3324359760675442 2.120471993983953 -1.3058544670854362 2.1157366608136137 L -1.1050163992206208 2.07995858797105 L -1.1195731641516637 1.998245060359385 Q -1.1297453613323927 1.9411440410644865 -1.1548722319961957 1.9141321849519473 Q -1.1799991026599985 1.887120328839408 -1.2154411146361424 1.8934341063998605 Q -1.2183946156341543 1.8939602545298981 -1.2193592205392234 1.8885455027002096 Q -1.2203238254442925 1.8831307508705208 -1.2173703244462806 1.882604602740483 L -1.1285899117959084 1.8678046591720228 L -1.081509278537729 1.858401788758749 Q -1.0483870326469515 1.8504697759529805 -1.0286970259935382 1.846962121752729 Q -1.026728025328197 1.8466113563327038 -1.0256757290681215 1.852518358328728 Q -1.0246234328080461 1.8584253603247518 -1.0265924334733874 1.858776125744777 Q -1.0669569471128846 1.865966816855292 -1.0845681495652495 1.9011000710197135 Q -1.1021793520176142 1.9362333251841346 -1.0918317721268727 1.994318844811704 L -1.077450389905842 2.0750478720906984 L -0.8549533147222721 2.035411379627858 Q -0.8264028050748229 2.0303252810374937 -0.8145490102275719 2.0170404194379405 Q -0.8026952153803207 2.003755557838387 -0.8069044004206224 1.9801275498542912 L -0.8126920298510371 1.9476390388761593 Q -0.8263718812320173 1.8708480129278475 -0.8661188792480692 1.8301887440127285 Q -0.905865877264121 1.7895294750976094 -0.9756858191733321 1.779621109349697 Q -0.9776548198386734 1.779971874769722 -0.9783563506787236 1.7760338734390393 M -0.8224786494543234 0.9611818886337984 Q -0.8164815099400249 0.9613671388592774 -0.8165432600151845 0.9633661853640436 L -0.8220390167043936 1.1412813242882311 Q -0.8227182675311497 1.1632708358406592 -0.9070314381075432 1.220695040383308 Q -0.9913446086839366 1.278119244925957 -1.1418984282309173 1.3585092158167043 Q -1.1411459052791728 1.3665362768733487 -1.1416090308428701 1.3815291256590947 Q -1.1428131573084834 1.4205105325020349 -1.1443066811621436 1.4364720295025841 L -0.9124172866092698 1.4436350382211038 Q -0.8814320657853945 1.4445921643860786 -0.8672843650641322 1.4400267986502806 Q -0.8531366643428699 1.4354614329144828 -0.8476913600360472 1.4211227209428274 Q -0.8422460557292243 1.4067840089711718 -0.8412580545266698 1.3747992648949134 Q -0.8411963044515102 1.3728002183901473 -0.8351991649372117 1.3729854686156262 Q -0.8292020254229132 1.3731707188411053 -0.8292637754980728 1.3751697653458712 Q -0.8302826517382071 1.408154032674513 -0.8318688007046069 1.4271140994322116 L -0.8352148268130568 1.5030469915757456 L -0.836469181304001 1.57604306403729 Q -0.8360871588032145 1.5960644041225314 -0.8371369100809285 1.630048194703556 Q -0.837229535193668 1.6330467644607052 -0.8432266747079665 1.6328615142352263 Q -0.849223814222265 1.6326762640097474 -0.8491311891095255 1.6296776942525981 Q -0.8481431879069711 1.5976929501763397 -0.8526931161239789 1.583045487828886 Q -0.8572430443409869 1.568398025481432 -0.8715663187938524 1.5624529595484178 Q -0.885889593246718 1.5565078936154033 -0.9158752908182103 1.5555816424880085 L -1.378654556671575 1.541286500088549 Q -1.4086402542430674 1.5403602489611543 -1.4227879549643294 1.544925614696952 Q -1.4369356556855917 1.54949098043275 -1.4428961591373959 1.564314016511807 Q -1.4488566625892005 1.5791370525908641 -1.449813788754175 1.6101222734147396 Q -1.4498755388293347 1.6121213199195057 -1.455872678343633 1.6119360696940268 Q -1.4618698178579317 1.6117508194685477 -1.4618080677827718 1.6097517729637816 L -1.4591721675386582 1.5568079156250583 Q -1.4557528693052197 1.5108915960905964 -1.4549192432905647 1.4839044682762534 Q -1.4540238672007497 1.4549182939571441 -1.4559418106426048 1.4198423550109969 Q -1.4566017084816099 1.4088167241972034 -1.4570609185763461 1.3912941922429196 Q -1.4575201286710822 1.3737716602886358 -1.4567791277691664 1.3497831022314422 Q -1.4539386243118224 1.257826963012199 -1.418895405959208 1.2083853525257777 Q -1.3838521876065937 1.1589437420393565 -1.3238807924636091 1.1607962442941462 Q -1.2779027228539876 1.162216496022818 -1.2367872473061334 1.1914998986678969 Q -1.1956717717582794 1.2207833013129759 -1.1710735438874116 1.2665645986472898 Q -1.0426636110807577 1.1904929931917017 -0.9700147706134588 1.1382111036049918 Q -0.8973659301461597 1.0859292140182817 -0.8635692353465672 1.0444529145133452 Q -0.8297725405469745 1.0029766150084087 -0.8285375390437815 0.9629956849130857 Q -0.8284757889686218 0.9609966384083195 -0.8224786494543234 0.9611818886337984 M -1.1675040102920908 1.37772780492487 Q -1.166392508939217 1.3417449678390794 -1.1767388889262544 1.3204153541256567 Q -1.1870852689132918 1.299085740412234 -1.2137790838706266 1.2887566434999393 Q -1.2404728988279614 1.278427546587645 -1.2894495381947322 1.2769146697462332 Q -1.3714104448901445 1.2743829166646876 -1.4031366666159357 1.2974143485569067 Q -1.434862888341727 1.320445780449126 -1.436252265032819 1.3654243268063646 Q -1.4373020163105332 1.3994081173873891 -1.4227414180509048 1.4138645684844497 Q -1.408180819791276 1.4283210195815101 -1.3731975059578683 1.429401645896804 L -1.173292855481253 1.4355766534127692 Q -1.1685537615698047 1.4117115955058948 -1.1675040102920908 1.37772780492487 M -0.7866823799777449 0.7155993263574888 Q -0.7719586478691649 0.7135470805645171 -0.7641177787545781 0.7003648663526361 Q -0.7562769096399913 0.687182652140755 -0.7497774027525638 0.6558496597809391 Q -0.7491680739818674 0.6529121917472064 -0.7432931379144019 0.6541308492885991 Q -0.7374182018469364 0.6553495068299917 -0.7380275306176328 0.6582869748637245 Q -0.7447301470952924 0.6905991232347846 -0.7495683853209467 0.7089999778581932 L -0.7659838701898313 0.7832127251225238 L -0.7800348238557632 0.8558733795448302 Q -0.7831178596491611 0.8756596093599474 -0.7900235857170529 0.9089509137422518 Q -0.7904298048975171 0.9109092257647402 -0.7963047409649826 0.9096905682233476 Q -0.8021796770324481 0.9084719106819549 -0.8017734578519838 0.9065135986594665 Q -0.7952739509645563 0.8751806062996506 -0.797123087167296 0.8594777181798262 Q -0.7989722233700355 0.843774830060002 -0.8120528827868005 0.8354443829397931 Q -0.8251335422035655 0.827113935819584 -0.8545082225408929 0.8210206481126208 L -1.3078574557469793 0.7269809078351539 Q -1.3372321360843067 0.7208876201281906 -1.3520574229880027 0.7234294439267845 Q -1.366882709891699 0.7259712677253783 -1.375314711807024 0.7395415051477654 Q -1.383746713722349 0.7531117425701526 -1.3902462206097765 0.7844447349299685 Q -1.3906524397902407 0.786403046952457 -1.3965273758577061 0.7851843894110643 Q -1.4024023119251716 0.7839657318696716 -1.4019960927447075 0.7820074198471831 L -1.3900490188609291 0.7293361048302258 Q -1.3787476656877637 0.6847011474934548 -1.3730605971612646 0.6572847791786158 Q -1.3667641998640692 0.6269309428300441 -1.3593794707358806 0.5814835471323445 L -1.3500000376452874 0.5313434809686558 Q -1.349390708874591 0.5284060129349231 -1.3435157728071254 0.5296246704763158 Q -1.33764083673966 0.5308433280177084 -1.3382501655103565 0.5337807960514411 Q -1.3445465628075517 0.5641346324000128 -1.3417182705935677 0.5800406301100691 Q -1.338889978379584 0.5959466278201255 -1.3257077641677029 0.6037874969347123 Q -1.312525549955822 0.6116283660492992 -1.2831508696184946 0.6177216537562624 L -0.8317599484348965 0.7113551748532652 Q -0.801406112086325 0.7176515721504605 -0.7866823799777449 0.7155993263574888 M -1.1468739887292094 -0.00907400453418905 Q -1.1504813747715783 -0.013655136047398764 -1.1520611464435395 -0.013720873893948049 Q -1.1536409181155007 -0.013786611740497334 -1.1561286974117535 -0.007243603703429358 Q -1.1966439602364414 0.09931395575739194 -1.2098450030667216 0.1579503989322052 Q -1.2230460458970018 0.2165868421070185 -1.2108464590738928 0.2618794472578091 Q -1.1986468722507835 0.3071720524085996 -1.1543844942715171 0.3539571130115373 Q -1.1538051758799721 0.35524722548772597 -1.1548713670069375 0.35805137178932656 Q -1.1580699403878338 0.36646381069412826 -1.1614534050809795 0.36410750709097406 L -1.309878008880939 0.26487980437230263 Q -1.310812724314806 0.2645244073299808 -1.3093911361455186 0.2607855455945134 Q -1.3058371657223005 0.25143839125584483 -1.3037438135053434 0.25437401325054404 Q -1.3012950642460648 0.25637491981137633 -1.2966214870767305 0.25815190502298546 Q -1.2854049018703282 0.26241666953084736 -1.2775789741481598 0.25308903021066587 Q -1.2697530464259916 0.24376139089048432 -1.2573141499447278 0.21104635070514444 L -1.127594229497262 -0.13012478265625704 Q -1.125817244285653 -0.1347983598255913 -1.120255174510514 -0.13535816319864935 Q -1.1146931047353752 -0.1359179665717074 -1.1129551495607402 -0.1320476291431414 L -0.6891139973919819 0.3992711807330568 Q -0.6858620083919349 0.4047870276801333 -0.6841045381988128 0.4043854078097492 Q -0.6823470680056907 0.40398378793936507 -0.6802146857517598 0.39837549533616395 L -0.6084244832027514 0.20956297769505955 Q -0.5956301896791658 0.1759132220758528 -0.6008389257667606 0.13755805204142607 Q -0.6060476618543553 0.09920288200699928 -0.626494311288504 0.06575240328221832 Q -0.6469409607226527 0.0323019245574373 -0.6775236186540616 0.014254735472972402 Q -0.6799723679133404 0.012253828912139997 -0.6781953827017313 0.007580251742805744 Q -0.6764183974901221 0.0029066745734714905 -0.6736142511885216 0.003972865700436978 L -0.5430560718703334 0.06859145291123736 Q -0.5402519255687328 0.06965764403820285 -0.5378689141560034 0.07323832227099636 Q -0.5354859027432739 0.07681900050378987 -0.5369074909125613 0.08055786223925732 Q -0.5917310810862466 0.21911966780077474 -0.7090121050524485 0.5275757609768363 Q -0.7104336932217358 0.5313146227123038 -0.7153507067587802 0.5315847668895893 Q -0.7202677202958248 0.5318549110668748 -0.7229403909043267 0.527629176595987 L -1.1468739887292094 -0.00907400453418905 M -0.4275163377102236 -0.1893501364245882 Q -0.5039920001166781 -0.15329499726948287 -0.5878748788560575 -0.16190677144177512 Q -0.671757757595437 -0.17051854561406737 -0.7448892709900624 -0.21946526918788511 Q -0.8304863832587717 -0.27675518427996726 -0.8626447538117995 -0.36085089881628685 Q -0.8948031243648273 -0.44494661335260643 -0.8802202610049976 -0.5332562396468477 Q -0.8656373976451681 -0.6215658659410889 -0.8183593123750033 -0.6922042595608975 Q -0.7655190994259954 -0.7711530524300954 -0.6884905034785441 -0.806236458854847 Q -0.611461907531093 -0.8413198652795986 -0.5293818014470062 -0.8327113703341937 Q -0.4473016953629193 -0.8241028753887891 -0.37915642151792744 -0.7784934284222771 Q -0.30353178834848527 -0.7278780665448065 -0.267070966911573 -0.6457159797885318 Q -0.23061014547466074 -0.5635538930322572 -0.2388195165920336 -0.47218181728776487 Q -0.24702888770940645 -0.3808097415432725 -0.29931288789052996 -0.3026919885990136 Q -0.35104067530376915 -0.22540527557969353 -0.4275163377102236 -0.1893501364245882 M -0.27284327906196515 -0.4456180527317069 Q -0.27510060845162915 -0.5006762443477286 -0.31313528456320466 -0.5562155404639699 Q -0.3511699606747801 -0.6117548365802113 -0.4234704341444666 -0.6601453473861448 Q -0.49992610723884773 -0.7113169220314998 -0.57575045929768 -0.7283732298048211 Q -0.6515748113565123 -0.7454295375781423 -0.7151267249768757 -0.7241891450396354 Q -0.7786786385972391 -0.7029487525011283 -0.8181697451170238 -0.6439449178304646 Q -0.8687851069944945 -0.5683202846610225 -0.8391132977625084 -0.4894987537389411 Q -0.8094414885305224 -0.4106772228168597 -0.7072235777630347 -0.34226305236709176 Q -0.6266127050439589 -0.2883104138823154 -0.5466298741335446 -0.27027581492486524 Q -0.4666470432231301 -0.25224121596741517 -0.4022673689047153 -0.2711226230827452 Q -0.33788769458630047 -0.29000403019807525 -0.30173386467382146 -0.3440216253191054 Q -0.2705859496723011 -0.3905598611156852 -0.27284327906196515 -0.4456180527317069 M 0.6716912575972049 -1.2863526383599049 Q 0.6753570692578559 -1.2816027094268958 0.6737737596135196 -1.280380772206679 L 0.5328592012675868 -1.1716283596073682 Q 0.5154427951798872 -1.1581870501849816 0.4175385955158474 -1.1868404564073458 Q 0.31963439585180753 -1.2154938626297098 0.16192038167145775 -1.2807264444513766 Q 0.15619811170422093 -1.2750470407483405 0.1443232893716985 -1.2658825115967132 Q 0.11344875130714019 -1.242054735802482 0.10017130554234113 -1.2330708928629146 L 0.24191602308750998 -1.049406974119901 Q 0.2608560500008731 -1.024865674632688 0.2733678846532327 -1.0168373501728762 Q 0.2858797193055923 -1.0088090257130644 0.3004135572775731 -1.0137097964487967 Q 0.31494739524955384 -1.018610567184529 0.34028034955893505 -1.0381615627080003 Q 0.34186365920327133 -1.0393834999282174 0.3455294708639223 -1.0346335709952084 Q 0.3491952825245732 -1.0298836420621993 0.3476119728802369 -1.0286617048419824 Q 0.3214873637486875 -1.0084997407084024 0.305834953517384 -0.9976829919385093 L 0.24505821842249517 -0.9520410323924325 L 0.18787838501432785 -0.9066486690323449 Q 0.17265625718107308 -0.8936376420080069 0.1457399932273556 -0.8728647092643184 Q 0.1433650287608511 -0.8710318034339929 0.13969921710020017 -0.8757817323670019 Q 0.13603340543954925 -0.8805316613000109 0.13840836990605374 -0.8823645671303363 Q 0.1637413242154349 -0.9019155626538079 0.17216547608633084 -0.9147328816112218 Q 0.18058962795722674 -0.9275502005686356 0.1760846846325786 -0.9423895228456707 Q 0.1715797413079304 -0.9572288451227057 0.15325068300467584 -0.9809784897877505 L -0.12962778347555337 -1.3475146724516094 Q -0.14795684177880797 -1.3712643171166543 -0.16046867643116758 -1.3792926415764661 Q -0.17298051108352724 -1.387320966036278 -0.1882156607716463 -1.3825105384065757 Q -0.20345081045976543 -1.3777001107768732 -0.22799210994697844 -1.35876008386351 Q -0.22957541959131478 -1.357538146643293 -0.23324123125196572 -1.362288075576302 Q -0.23690704291261666 -1.3670380045093111 -0.23532373326828032 -1.3682599417295283 L -0.19275505908325924 -1.3998496232431097 Q -0.1551170000433068 -1.4263708696637638 -0.13374231984476645 -1.442867022136693 Q -0.11078433000188975 -1.460585111829839 -0.08490931705632954 -1.4843439776501404 Q -0.07681208262258821 -1.491856287183502 -0.0635690918447539 -1.5033398926825687 Q -0.05032610106691951 -1.5148234981816353 -0.03132638533488363 -1.529486744824239 Q 0.04150585830458725 -1.5856958569542199 0.10195187526271376 -1.590029335222065 Q 0.16239789222084022 -1.5943628134899102 0.19905600882734942 -1.5468635241598203 Q 0.22716056489233977 -1.510447402340085 0.23065491149618766 -1.4600907787259845 Q 0.2341492581000356 -1.409734155111884 0.2144099749652889 -1.3616575422806299 Q 0.35472440561241114 -1.3107865234961205 0.44124836473827855 -1.2878768203730935 Q 0.5277723238641459 -1.2649671172500665 0.5812741336348186 -1.265204501459212 Q 0.6347759434054913 -1.2654418856683574 0.6664421362922177 -1.2898806300726968 Q 0.668025445936554 -1.2911025672929137 0.6716912575972049 -1.2863526383599049 M 0.13081306997538236 -1.2882984428034108 Q 0.15931264357343616 -1.3102933127673162 0.16921674012777424 -1.3318318566234444 Q 0.17912083668211226 -1.3533704004795724 0.17014540501978068 -1.3805492824741434 Q 0.1611699733574491 -1.4077281644687143 0.13123251146213322 -1.4465192507549542 Q 0.08113308543323733 -1.5114349461727437 0.04319334278783843 -1.5213129990173528 Q 0.0052536001424394185 -1.5311910518619622 -0.03037086685512788 -1.5036974644070802 Q -0.05728713080884537 -1.4829245316633917 -0.059205769167572336 -1.4624961487893506 Q -0.0611244075262993 -1.4420677659153092 -0.03974050617250227 -1.4143598471394236 L 0.08245321584919502 -1.2560288827057913 Q 0.10389680602166484 -1.2675255100597222 0.13081306997538236 -1.2882984428034108 M 1.3442132885599092 -1.591603387240777 Q 1.3466813779967508 -1.5861345176563246 1.3421239866763734 -1.5840777764589566 Q 1.323894421394865 -1.5758508116694845 1.2847896378247494 -1.560397142139744 Q 1.243861897726483 -1.5441207761310567 1.2265438107090496 -1.5363051595810582 Q 1.203756854107164 -1.526021453594218 1.1717663330793955 -1.5093899604450176 Q 1.141598768579778 -1.4935811637747642 1.1233692032982692 -1.4853541989852923 Q 1.1197232902419674 -1.4837088060273977 1.1172552008051257 -1.4891776756118504 Q 1.1147871113682841 -1.4946465451963031 1.118433024424586 -1.4962919381541975 Q 1.1421314592905474 -1.506986992380511 1.15035104401031 -1.5167306275868724 Q 1.1585706287300725 -1.5264742627932337 1.1528117533774422 -1.5392349584902898 Q 1.145818833306391 -1.5547300889795723 1.1111353384459384 -1.5829622547531175 L 0.9320152098900047 -1.7270350819833271 L 0.7697720788845772 -1.653815095357026 L 0.7696387957325768 -1.4815072828945572 Q 0.7697186772443305 -1.4497268861232127 0.7800023832311707 -1.4269399295213268 Q 0.7948109198522203 -1.3941267120146112 0.8262805803756159 -1.3863865268396793 Q 0.8577502408990115 -1.3786463416647474 0.8969438062542552 -1.3963343159621122 Q 0.9015011975746324 -1.3983910571594804 0.903969287011474 -1.3929221875750277 Q 0.9064373764483156 -1.387453317990575 0.9018799851279384 -1.385396576793207 Q 0.8854733763745806 -1.3779923084826822 0.8536604189170687 -1.3658294248687306 Q 0.8182015484032549 -1.3520211482968847 0.7926801570091426 -1.3405033975916238 Q 0.7680702438791059 -1.3293969951258366 0.7342567663231866 -1.311942805497689 Q 0.704089201823569 -1.2961340088274356 0.6849481582779849 -1.28749569579849 Q 0.6813022452216831 -1.2858503028405954 0.6788341557848415 -1.2913191724250481 Q 0.6763660663479999 -1.2967880420095008 0.6800119794043017 -1.2984334349673952 Q 0.7055333707984138 -1.309951185672656 0.7181209530619007 -1.328248802259522 Q 0.7307085353253876 -1.3465464188463878 0.7358918492783496 -1.3812506441866117 Q 0.7410751632313116 -1.4159548695268354 0.740915400207804 -1.4795156630695243 L 0.7424930732832655 -2.0035533629992783 Q 0.7430819850929956 -2.007110494270452 0.7494623329415236 -2.009989931946767 Q 0.7567541590541271 -2.013280717862556 0.7588996820366234 -2.010957631309803 L 1.189152581876494 -1.6653473852530896 Q 1.2502600461217601 -1.6150296168853095 1.2823304486612823 -1.5998807132631656 Q 1.3144008512008045 -1.584731809641022 1.3371878078026902 -1.5950155156278618 Q 1.3417451991230676 -1.5970722568252298 1.3442132885599092 -1.591603387240777 M 0.7701035456122971 -1.6846840138642951 L 0.9077367634876878 -1.746797598024809 L 0.7698254805248239 -1.8579033045908395 L 0.7701035456122971 -1.6846840138642951 M 2.0203026759465277 -1.7272242092781167 Q 2.021512458802095 -1.7213474392943267 2.0185740738102 -1.720742547866543 L 1.9088743674461188 -1.6981599345626222 Q 1.8932029808226787 -1.6949338469477762 1.8826305329949915 -1.6917364500486047 Q 1.8720580851673043 -1.6885390531494333 1.8652018535195491 -1.6871276398179382 Q 1.849530466896109 -1.6839015522030922 1.8367544291910525 -1.6889287642096593 Q 1.823978391485996 -1.6939559762162266 1.803784664512016 -1.710218306642717 Q 1.783590937538036 -1.7264806370692074 1.7309606105236175 -1.7738414719262425 Q 1.7246518888722973 -1.7796895511943582 1.716571529011138 -1.7867043772445297 Q 1.7084911691499785 -1.7937192032947011 1.6984375406030519 -1.8028802377908932 L 1.5346410988603316 -1.9488518983021843 L 1.5175288127235145 -1.922867871224541 L 1.5614842564757891 -1.7093452284801693 Q 1.5677348012295529 -1.678981916897254 1.575454936212368 -1.6662776059813833 Q 1.5831750711951833 -1.6535732950655124 1.5983854177023151 -1.6515996286466414 Q 1.613595764209447 -1.6496259622277705 1.6449385374563272 -1.6560781374574622 Q 1.6488563841121873 -1.6568846593611737 1.6500661669677545 -1.6510078893773836 Q 1.6512759498233218 -1.6451311193935936 1.6473581031674618 -1.6443245974898821 Q 1.6150358682566164 -1.6376707917842626 1.5962244661653535 -1.634819274405598 L 1.52256321089205 -1.6206764503749733 L 1.450284678234567 -1.6047763334923462 Q 1.430897075431195 -1.5997642623098238 1.3975953788563846 -1.5929088261282764 Q 1.3956364555284546 -1.5925055651764208 1.3944266726728873 -1.5983823351602109 Q 1.3932168898173203 -1.604259105144001 1.3951758131452503 -1.6046623660958566 Q 1.4265185863921306 -1.6111145413255483 1.4402023589719664 -1.6190363067842912 Q 1.4538861315518021 -1.6269580722430343 1.4563495288026556 -1.6422692339881302 Q 1.458812926053509 -1.657580395733226 1.452764011775673 -1.6869642456521763 L 1.3594091014210716 -2.1404549960679753 Q 1.3533601871432355 -2.1698388459869253 1.345150321328438 -2.1824423416648324 Q 1.3369404555136404 -2.195045837342739 1.3216292937685443 -2.1975092345935927 Q 1.3063181320234485 -2.199972631844446 1.2759548204405333 -2.1937220870906824 Q 1.2730164354486382 -2.1931171956628988 1.2718066525930711 -2.1989939656466886 Q 1.2705968697375039 -2.204870735630479 1.2735352547293988 -2.205475627058262 L 1.3256483533954722 -2.215182580618474 Q 1.3711068508897184 -2.222498659183226 1.3975523158167735 -2.2279426820332784 Q 1.4269361657357238 -2.2339915963111143 1.4715881413262584 -2.245225521531726 L 1.521339055712546 -2.256488137468012 Q 1.524277440704441 -2.2570930288957958 1.5254872235600083 -2.251216258912006 Q 1.5266970064155754 -2.2453394889282157 1.5237586214236805 -2.244734597500432 Q 1.493395309840765 -2.238484052746668 1.4804028985688396 -2.229683640861924 Q 1.4674104872969143 -2.22088322897718 1.4649470900460608 -2.205572067232084 Q 1.4624836927952072 -2.1902609054869884 1.4685326070730431 -2.1608770555680383 L 1.5112782679697507 -1.9532311828074564 L 1.656704009417022 -2.1791943517631767 Q 1.6792611138700992 -2.2134460238200697 1.6744219824478304 -2.23695310375523 Q 1.670792633881129 -2.2545834137066003 1.6531049424984101 -2.2611519427314044 Q 1.6354172511156913 -2.267720471756209 1.607012862860706 -2.2618731879543006 Q 1.604074477868811 -2.261268296526517 1.602864695013244 -2.2671450665103072 Q 1.6016549121576766 -2.273021836494097 1.6045932971495716 -2.2736267279218807 L 1.6508296258318549 -2.2821238986265255 Q 1.694329199998171 -2.2890367162394214 1.7315487432288412 -2.2966986743246802 Q 1.7717066714514067 -2.3049655238377227 1.8143997237140113 -2.315796188106479 L 1.8582738681165087 -2.3258490211871976 Q 1.8612122531084037 -2.3264539126149817 1.862422035963971 -2.3205771426311914 Q 1.8636318188195382 -2.314700372647401 1.860693433827643 -2.314095481219618 Q 1.8156381972852529 -2.304820479326936 1.7671110133792658 -2.2677750690558307 Q 1.7185838294732787 -2.2307296587847256 1.6833797955356795 -2.178559974153511 L 1.5958881322393381 -2.0431376390176865 L 1.7811745536917323 -1.8770866166620088 Q 1.8635911961107494 -1.7991026628485742 1.903186473512835 -1.767946379253577 Q 1.9427817509149206 -1.7367900956585798 1.9642864737155352 -1.7315178193694696 Q 1.9857911965161503 -1.7262455430803594 2.0161545080990653 -1.7324960878341231 Q 2.0190928930909604 -1.7331009792619068 2.0203026759465277 -1.7272242092781167 M 2.202742029049516 -1.748064222652962 Q 2.1311822230647977 -1.7930941478963984 2.0932733441444458 -1.8684162356197356 Q 2.0553644652240943 -1.943738323343073 2.0572333867801724 -2.0317184752650674 Q 2.059420874510582 -2.1346952439919473 2.112970120355076 -2.207074303598203 Q 2.1665193661995694 -2.279453363204459 2.2487867807361313 -2.3147141417759753 Q 2.331054195272693 -2.3499749203474916 2.4160350238337105 -2.3481697120262797 Q 2.5110135969313183 -2.3461521262555136 2.5820522779442516 -2.3001330454308957 Q 2.6530909589571845 -2.2541139646062778 2.6900319200413105 -2.1803127763083845 Q 2.7269728811254366 -2.106511588010491 2.725231386039091 -2.024530082810451 Q 2.7232987512481466 -1.9335506075274795 2.6736955088559005 -1.8585871608072542 Q 2.624092266463654 -1.7836237140870288 2.5426759621660633 -1.741343276594944 Q 2.4612596578684722 -1.699062839102859 2.3672808592245236 -1.7010591871286698 Q 2.274301835034234 -1.7030342974095252 2.202742029049516 -1.748064222652962 M 2.5019719191229415 -1.7557109792625136 Q 2.5471521090218197 -1.7872585693559153 2.57347382942301 -1.8492135290857186 Q 2.5997955498242002 -1.911168488815522 2.601643233635323 -1.9981488662838576 Q 2.6035971061712226 -2.090128116020488 2.577143157978039 -2.16320642076952 Q 2.5506892097848555 -2.2362847255185514 2.4985719112840994 -2.2784010786012097 Q 2.4464546127833438 -2.320517431683868 2.3754706265735526 -2.3220253115757035 Q 2.284491151290581 -2.3239579463666478 2.2340474175318414 -2.2565140457938204 Q 2.183603683773102 -2.1890701452209935 2.1809914411435836 -2.0660978874209333 Q 2.178931379882907 -1.9691197654160073 2.2068000387767572 -1.8920105062349064 Q 2.234668697670608 -1.8149012470538055 2.2852438590009645 -1.7708172016812624 Q 2.3358190203313205 -1.7267331563087194 2.4008043598191575 -1.7253527028866162 Q 2.4567917292240633 -1.724163389169112 2.5019719191229415 -1.7557109792625136 M 2.9226363819395655 -2.116445433786305 Q 2.920935135318986 -2.1137797706538053 2.916207921146409 -2.115483720819329 Q 2.911480706973832 -2.117187670984852 2.9122121299926036 -2.1200971417902754 Q 2.9258437313167915 -2.1579148551708913 2.9461746365564996 -2.218279615521066 Q 2.9665055417962076 -2.2786443758712407 2.9743073873297727 -2.3096787311290896 Q 2.9755264256943925 -2.3145278491381287 2.9808604555043354 -2.313186906937047 Q 2.986194485314278 -2.3118459647359657 2.9849754469496586 -2.3069968467269266 Q 2.979611678145332 -2.285660727487155 3.034891623448376 -2.271763690130492 Q 3.1175650301850735 -2.2478867594536114 3.2290947443929685 -2.2198488770673603 Q 3.286314336899628 -2.2054642243648495 3.3508103099647895 -2.191312565155486 L 3.4170021225606426 -2.1757034669984674 Q 3.4538554194293383 -2.166438775427358 3.4720463708255944 -2.1670212591602285 Q 3.49023732222185 -2.1676037428930988 3.498743555324748 -2.1809320585555962 Q 3.5006886096182512 -2.1845675452899034 3.506022639428194 -2.183226603088822 Q 3.511356669238137 -2.1818856608877404 3.5103814385464416 -2.178006366480509 Q 3.5001577375533004 -2.1496430814450473 3.4806720485339944 -2.086488050580967 Q 3.4611863595146883 -2.0233330197168873 3.4514340525977314 -1.984540075644576 Q 3.45070262957896 -1.9816306048391525 3.445853511569921 -1.9828496432037723 Q 3.441004393560882 -1.9840686815683917 3.440765992977846 -1.9872219600467391 Q 3.444991829765871 -2.065555492479797 3.414615657499323 -2.112889815739278 Q 3.384239485232775 -2.160224138998758 3.3260500691243076 -2.1748525993741934 Q 3.297925184671882 -2.181923021888987 3.285664264543159 -2.172116399759167 Q 3.273403344414436 -2.1623097776293467 3.264870075862099 -2.1283659515660744 L 3.1524747386441714 -1.681277271132686 Q 3.14491670078353 -1.6512127394766447 3.147322334973442 -1.6361723630137923 Q 3.1497279691633535 -1.6211319865509397 3.1649959320294663 -1.6121381381021942 Q 3.180263894895579 -1.6031442896534487 3.216147368162467 -1.5941234057552636 Q 3.2190568389678904 -1.5933919827364917 3.217593992930347 -1.5875730411256452 Q 3.2161311468928035 -1.5817540995147985 3.21322167608738 -1.58248552253357 Q 3.1783080264223 -1.5912625987588314 3.1581855384572606 -1.5973523834920413 L 3.0779339871801383 -1.6185582439465347 L 2.9991344677607836 -1.6373368418515644 Q 2.9785243644498967 -1.6414869793811588 2.9426408911830086 -1.650507863279344 Q 2.9397314203775853 -1.6512392862981158 2.9411942664151285 -1.6570582279089623 Q 2.942657112452672 -1.662877169519809 2.9455665832580955 -1.6621457465010374 Q 2.980480232923176 -1.6533686702757762 2.9986711843194316 -1.6539511540086465 Q 3.0168621357156873 -1.6545336377415167 3.0267012003848346 -1.6670113300937242 Q 3.0365402650539823 -1.6794890224459316 3.0438544952416997 -1.7085837305001652 L 3.156737447805475 -2.157612058137169 Q 3.1650269086848883 -2.1905860605986334 3.159224188343705 -2.204418212876642 Q 3.153421468002522 -2.2182503651546512 3.1262664071519044 -2.225076979996521 Q 3.010857398536778 -2.2540900930744674 2.9226363819395655 -2.116445433786305 M 3.590882629252882 -1.4768564812029363 Q 3.546234831662948 -1.5486553263912002 3.5450993020330426 -1.6329714611013468 Q 3.5439637724031376 -1.7172875958114935 3.584135117877972 -1.7955835918952108 Q 3.631153851786017 -1.8872254964022892 3.7109718709763992 -1.9288828344416282 Q 3.7907898901667814 -1.9705401724809672 3.8801928840689617 -1.9662559361048142 Q 3.969595877971142 -1.9619716997286611 4.045222692370187 -1.9231698319404686 Q 4.129746779051473 -1.8798030385301359 4.1734932204650805 -1.807342712394755 Q 4.217239661878689 -1.734882386259374 4.218170203123691 -1.6523573349537775 Q 4.219100744368694 -1.569832283648181 4.181668354267143 -1.496874650933808 Q 4.140127531105667 -1.4159094731654185 4.062727189422645 -1.3702018468066632 Q 3.9853268477396244 -1.3244942204479078 3.89361813313017 -1.3220938736642784 Q 3.8019094185207156 -1.3196935268806491 3.718275059067654 -1.3626038277287678 Q 3.6355304268428164 -1.4050576360146725 3.590882629252882 -1.4768564812029363 M 3.863301966362873 -1.3528213862960785 Q 3.9177308362907994 -1.3614236021948363 3.968504802134778 -1.4056192399034892 Q 4.019278767978756 -1.4498148776121424 4.058993620891377 -1.5272211464676357 Q 4.100990936615068 -1.6090760514642495 4.109174284985311 -1.6863630672524867 Q 4.117357633355554 -1.763650083040724 4.088918285310454 -1.824323005195254 Q 4.060478937265354 -1.884995927349784 3.9973083040614457 -1.9174068992669802 Q 3.9163431262930564 -1.9589477224284568 3.841476751598416 -1.9203695428435958 Q 3.766610376903776 -1.881791363258735 3.7104617917514506 -1.7723549141871757 Q 3.66618201321669 -1.6860513730494415 3.657507285439926 -1.6045207095049872 Q 3.648832557663163 -1.5229900459605326 3.675024329741499 -1.4612224081928755 Q 3.701216101819835 -1.3994547704252183 3.7590483716543988 -1.3697827538813065 Q 3.8088730964349464 -1.3442191703973208 3.863301966362873 -1.3528213862960785 M 4.6389346525930115 -0.7092841277201738 Q 4.634994911838233 -0.7047588163734111 4.631223819049264 -0.7080419336690597 Q 4.616139447893389 -0.7211744028516538 4.585775515384309 -0.7502610252506892 Q 4.553903145759643 -0.780660894567984 4.539572993161561 -0.7931367402914484 Q 4.520717529216716 -0.8095523267696911 4.49225241421788 -0.8316823341827732 Q 4.465295736334633 -0.8524990946775957 4.450211365178757 -0.8656315638601899 Q 4.447194490947582 -0.8682580576967087 4.45113423170236 -0.8727833690434714 Q 4.4550739724571375 -0.8773086803902341 4.458090846688313 -0.8746821865537153 Q 4.477700529190951 -0.8576099766163429 4.489985471630793 -0.8542070089042171 Q 4.502270414070635 -0.8508040411920912 4.511463142498451 -0.8613631010012042 Q 4.522625741303656 -0.8741848164836985 4.533806308512969 -0.917486027978044 L 4.589975387624006 -1.1403896720752593 L 4.455724484336712 -1.2572686478003476 L 4.29908508364999 -1.185476599824933 Q 4.270238162083909 -1.1721403666175996 4.253822575605666 -1.153284902672755 Q 4.230184131076997 -1.1261330345921787 4.236284235118144 -1.0943047652284954 Q 4.242384339159291 -1.062476495864812 4.274815737144424 -1.0342416871222346 Q 4.278586829933393 -1.0309585698265862 4.274647089178615 -1.0264332584798235 Q 4.270707348423836 -1.0219079471330608 4.266936255634867 -1.0251910644287092 Q 4.253360321594579 -1.037010286693044 4.22903013754785 -1.0608439214190417 Q 4.201683079269945 -1.0873040499815583 4.180564959651719 -1.1056895068371901 Q 4.160201058591287 -1.1234183402336924 4.1302275064768645 -1.1468615945650336 Q 4.103270828593616 -1.1676783550598562 4.087432238879947 -1.18146744770158 Q 4.0844153646487715 -1.1840939415380989 4.08835510540355 -1.1886192528848616 Q 4.092294846158328 -1.1931445642316243 4.095311720389503 -1.1905180703951055 Q 4.116429840007729 -1.1721326135394736 4.138311162385802 -1.1683302812306378 Q 4.1601924847638765 -1.1645279489218017 4.193893029406285 -1.174301550653254 Q 4.227593574048693 -1.184075152384706 4.285287417180855 -1.210747618799373 L 4.7621622342269765 -1.4280225802358608 Q 4.765640541719954 -1.4289719889909827 4.77092007162451 -1.4243756247770747 Q 4.77695382008686 -1.419122637104037 4.775738168267265 -1.416203357971526 L 4.641234065823894 -0.8809719627545571 Q 4.621011449748467 -0.8044406240816587 4.620629643181221 -0.7689743834612432 Q 4.620247836613976 -0.7335081428408279 4.639103300558821 -0.7170925563625851 Q 4.64287439334779 -0.7138094390669365 4.6389346525930115 -0.7092841277201738 M 4.483914782443663 -1.2698506624498873 L 4.597801784670525 -1.1707005201213012 L 4.641210806589516 -1.3423969289830957 L 4.483914782443663 -1.2698506624498873 M 5.066015716517683 -0.1139991553253582 Q 5.061136326933592 -0.11050751426610383 5.059972446580507 -0.11213397746080056 L 4.95638709515596 -0.2568892017888122 Q 4.943584411272027 -0.27478029693047656 4.9757596074607235 -0.3715842573361276 Q 5.007934803649421 -0.4683882177417786 5.0788281650508775 -0.6236400496446663 Q 5.07335941204119 -0.629563962246911 5.064630309393054 -0.6417624362071368 Q 5.0419346425079 -0.6734784685037236 5.03343683128057 -0.68707211423784 L 4.844767100695746 -0.5520619932800027 Q 4.819556921177946 -0.5340218478071883 4.8110813796977805 -0.5218085273488527 Q 4.802605838217615 -0.5095952068905172 4.8069778127907385 -0.49489364784625367 Q 4.811349787363861 -0.48019208880199016 4.829971873013218 -0.454168677686842 Q 4.831135753366302 -0.4525422144921452 4.826256363782212 -0.4490505734328908 Q 4.821376974198122 -0.4455589323736364 4.820213093845037 -0.44718539556833314 Q 4.801009068019138 -0.47402203828082967 4.7907654362621805 -0.4900553788069913 L 4.747351214442307 -0.5524429203820106 L 4.704056349957363 -0.6112268868119 Q 4.691604314829166 -0.6269095785823251 4.671818348826725 -0.6545594528921701 Q 4.670072528297098 -0.6569991476842152 4.674951917881188 -0.6604907887434697 Q 4.679831307465278 -0.663982429802724 4.681577127994905 -0.6615427350106788 Q 4.700199213644262 -0.6355193238955308 4.712703504190869 -0.6266371666166912 Q 4.725207794737476 -0.6177550093378518 4.740200323870011 -0.6217203681123005 Q 4.755192853002545 -0.6256857268867492 4.779589800922997 -0.6431439321830212 L 5.156116030495297 -0.9125822339221535 Q 5.180512978415748 -0.9300404392184256 5.188988519895913 -0.9422537596767612 Q 5.1974640613760785 -0.9544670801350967 5.1932077325133585 -0.9698662250663056 Q 5.188951403650639 -0.9852653699975145 5.170911258177824 -1.0104755495153144 Q 5.16974737782474 -1.012102012710011 5.17462676740883 -1.0155936537692654 Q 5.17950615699292 -1.0190852948285198 5.180670037346005 -1.0174588316338231 L 5.210699635105404 -0.9737756167978165 Q 5.235842420031657 -0.9352030829667063 5.251554804798302 -0.9132458298383 Q 5.268431069918032 -0.889662113515197 5.2912386708890615 -0.8629448281376308 Q 5.298453244428376 -0.8545812207433411 5.309450429115216 -0.8409316079662869 Q 5.320447613802057 -0.8272819951892326 5.334414178039075 -0.8077644368528716 Q 5.387952674280975 -0.7329471298968206 5.3900973946851956 -0.6723839383165569 Q 5.392242115089417 -0.6118207467362933 5.343448219248514 -0.5769043361437491 Q 5.306039565770488 -0.5501350880227985 5.255589513738669 -0.5484640853337723 Q 5.20513946170685 -0.546793082644746 5.157808132231384 -0.5682580599353207 Q 5.10189616508888 -0.42987506990310764 5.075872461298706 -0.34423619531311034 Q 5.049848757508532 -0.25859732072311303 5.048151188097762 -0.2051219220981788 Q 5.046453618686992 -0.1516465234732446 5.069731225748687 -0.11911725957930941 Q 5.070895106101773 -0.11749079638461268 5.066015716517683 -0.1139991553253582 M 5.087520151453739 -0.6544531860051941 Q 5.108469997809265 -0.6251768485006524 5.129636289087488 -0.6145003268983028 Q 5.150802580365711 -0.6038238052959533 5.178288265171269 -0.6118104898877885 Q 5.2057739499768285 -0.6197971744796238 5.245622298246899 -0.6483122431302015 Q 5.312307289229466 -0.6960313376066785 5.323550904510249 -0.7335890414158541 Q 5.33479451979103 -0.7711467452250297 5.308607211846622 -0.8077421671057068 Q 5.288821245844181 -0.8353920414155517 5.268475609412361 -0.838048181130293 Q 5.248129972980542 -0.8407043208450342 5.219666867073348 -0.8203364146660501 L 5.057020547603673 -0.7039483793575697 Q 5.067734185451297 -0.682103060315039 5.087520151453739 -0.6544531860051941 M 5.186574553445033 0.10292879271583291 Q 5.176116249131352 0.11349401258493386 5.177882315972983 0.12872985873507897 Q 5.179648382814614 0.14396570488522406 5.19349403806877 0.17281527733583557 Q 5.194792068248846 0.17551992475308043 5.189382773414357 0.17811598511323457 Q 5.183973478579867 0.18071204547338865 5.18267544839979 0.1780073980561438 Q 5.168397116418943 0.14825627646645068 5.161077807750869 0.13069416609720777 L 5.129095925661332 0.06174375480031302 L 5.096176298747016 -0.004538204765033763 Q 5.086621215074088 -0.0221365108199736 5.071910206366548 -0.05278918154874835 Q 5.071044852913164 -0.05459227982691157 5.076454147747653 -0.05718834018706567 Q 5.081863442582143 -0.059784400547219785 5.082728796035528 -0.05798130226905657 Q 5.0965744512896825 -0.02913172981844505 5.107572347885476 -0.017771876365682643 Q 5.118570244481269 -0.006412022912920257 5.1340224289947605 -0.007727315185010505 Q 5.149474613508252 -0.00904260745710074 5.1765210876807 -0.022022909257871287 L 5.5939383390754855 -0.22235223371642998 Q 5.620984813247934 -0.23533253551720054 5.631226779198268 -0.24634852995584233 Q 5.641468745148603 -0.2573645243944841 5.639937114513167 -0.27326748347751617 Q 5.63840548387773 -0.28917044256054825 5.624559828623575 -0.3180200150111598 Q 5.623694475170191 -0.319823113289323 5.62910377000468 -0.3224191736494771 Q 5.63451306483917 -0.3250152340096312 5.635378418292555 -0.323212135731468 L 5.65784141239486 -0.2740958054943687 Q 5.675941443544545 -0.23175919164322994 5.68805639189193 -0.20651581574894487 Q 5.701469370419393 -0.17856779243741494 5.723175598125405 -0.13796188549304556 L 5.746143660325797 -0.09241555612657587 Q 5.747441690505873 -0.08971090870933102 5.742032395671384 -0.08711484834917688 Q 5.736623100836894 -0.08451878798902279 5.735325070656817 -0.08722343540626765 Q 5.7219120921293545 -0.11517145871779755 5.710012646394479 -0.12609863544386754 Q 5.698113200659604 -0.13702581216993762 5.6828773545094595 -0.13525974532830654 Q 5.667641508359314 -0.1334936784866755 5.640595034186866 -0.12051337668590495 L 5.224980881070244 0.07895059431926904 Q 5.197032857758714 0.09236357284673194 5.186574553445033 0.10292879271583291 M 6.003262379086352 0.7042447393267026 Q 5.9975035723640735 0.70592882517233 5.99666152944126 0.7030494218111909 Q 5.986557014367495 0.6684965814775213 5.946580906364393 0.6458049356816706 Q 5.9066047983612915 0.6231132898858198 5.849161918375363 0.6190740400888728 L 5.323094184667606 0.5801672341086194 Q 5.318974299211816 0.5803301568853245 5.316167489469104 0.5707321456815275 Q 5.313360679726391 0.5611341344777304 5.316919203233639 0.5590516094602658 L 5.764597960919896 0.16245391668269826 Q 5.794098543716683 0.1350729814420988 5.805842805786446 0.1128846442255173 Q 5.817587067856208 0.09069630700893583 5.811412086422241 0.06958068236058221 Q 5.810570043499427 0.06670127899944309 5.816328850221705 0.06501719315381563 Q 5.8220876569439834 0.0633331073081882 5.822929699866798 0.06621251066932732 Q 5.827139914480866 0.08060952747502298 5.827864199206114 0.08664901517157245 Q 5.831558216450779 0.10640639952770914 5.8405400076274585 0.13712003537985987 Q 5.864678571414785 0.21966293173251494 5.883439032111819 0.2766896370067551 Q 5.888889728820539 0.29176577395855924 5.895626072203049 0.31480100084767226 Q 5.896468115125862 0.3176804042088114 5.890709308403585 0.3193644900544388 Q 5.884950501681306 0.3210485759000663 5.884108458758492 0.3181691725389272 Q 5.875688029530355 0.28937513892753586 5.8590592794501335 0.2770469326196611 Q 5.842430529369912 0.2647187263117864 5.820355103601178 0.271174388720025 Q 5.804038484554723 0.27594596528263604 5.784090748382593 0.2932401209893227 L 5.478481943511405 0.5628569943211004 L 5.844182254456907 0.5913575657954271 Q 5.873863495570252 0.5930965097196295 5.8930595179778456 0.5874828902342046 Q 5.922813352709617 0.5787817800317963 5.934897174852433 0.5559732017678892 Q 5.94698099699525 0.5331646235039823 5.9371571628957565 0.49957158429069237 Q 5.936315119972943 0.49669218092955325 5.942073926695222 0.49500809508392585 Q 5.947832733417499 0.4933240092382984 5.948674776340313 0.4962034125994375 L 5.961468342959225 0.5435143484723145 Q 5.971337341637857 0.5843873574768048 5.980599813788808 0.6160607944493353 Q 5.985932752299961 0.6342970157365497 5.995711421820316 0.6606100851586392 L 6.008179142885816 0.6996812501199361 Q 6.00902118580863 0.7025606534810751 6.003262379086352 0.7042447393267026 M 5.453214352949259 1.0663137927835917 Q 5.492747510410954 0.991576723928111 5.565012570817983 0.9481225981818902 Q 5.637277631225013 0.9046684724356693 5.725149971724605 0.899930142020454 Q 5.828000552082082 0.8943841416480995 5.9041938499038 0.9423511236987865 Q 5.980387147725518 0.9903181057494735 6.021721812808757 1.0697076230830391 Q 6.063056477891995 1.1490971404166048 6.067633274315782 1.2339738329446202 Q 6.072748517377663 1.3288360187112251 6.032189888260205 1.4031276575685854 Q 5.991631259142746 1.4774192964259458 5.920810178057696 1.519794105852594 Q 5.849989096972646 1.5621689152792417 5.768108052416207 1.5665841777116016 Q 5.677240063945039 1.5714840421182448 5.598765771468909 1.5276458690225168 Q 5.520291478992781 1.483807695926789 5.472020813306339 1.4057936405637472 Q 5.423750147619897 1.3277795852007053 5.418688749221826 1.2339159487579594 Q 5.413681195487564 1.1410508616390722 5.453214352949259 1.0663137927835917 M 5.4832935979622555 1.3641262153241032 Q 5.518142538527186 1.4068117086620275 5.581897987863605 1.4284101502704234 Q 5.645653437200024 1.4500085918788193 5.732527228375757 1.4453241061274131 Q 5.824393766170785 1.4403703970569608 5.895280941563903 1.408507277862737 Q 5.966168116957021 1.3766441586685132 6.004254872053349 1.3215134132878061 Q 6.042341627149677 1.266382667907099 6.038518656019219 1.1954856659131101 Q 6.033618791612576 1.1046176774419412 5.96257977440158 1.0593771200437847 Q 5.891540757190585 1.0141365626456285 5.768719190355927 1.0207594562941682 Q 5.671859905941605 1.025982388683667 5.597059300248764 1.0595587105189164 Q 5.522258694555924 1.0931350323541658 5.482094073816164 1.1468756430767026 Q 5.441929453076405 1.2006162537992395 5.445429356224007 1.2655219598500747 Q 5.448444657397325 1.3214407219861788 5.4832935979622555 1.3641262153241032 M 5.916516030206388 2.490671332977026 Q 5.9106278479967385 2.489518375793968 5.911012167057758 2.4875556483907513 Q 5.918698548278145 2.44830110032642 5.892205260879207 2.419676709978375 Q 5.865711973480268 2.39105231963033 5.8136996972950294 2.3808678645133177 L 5.3112414820715905 2.2824821848923667 Q 5.308297390966765 2.281905706300838 5.308180745152451 2.277297410113091 Q 5.308064099338136 2.272689113925344 5.310411145802372 2.2711107055831468 L 5.924582182270228 1.9134643188210272 L 5.542831702344608 1.8387142614527658 Q 5.490819426159368 1.8285298063357533 5.456169641738299 1.8441628623253357 Q 5.42151985731723 1.8597959183149182 5.414025635627353 1.898069102677641 Q 5.413641316566333 1.9000318300808576 5.407753134356684 1.8988788728977997 Q 5.401864952147034 1.8977259157147415 5.402249271208054 1.895763188311525 Q 5.407629738062324 1.8682850046664932 5.411493494721578 1.8537567086728786 L 5.422851473070708 1.8009552283165413 L 5.433784000260699 1.7399185192863182 Q 5.436069348577755 1.723043176828468 5.442218453554065 1.6916395383770029 Q 5.442794932145594 1.688695447272178 5.448683114355243 1.6898484044552362 Q 5.454571296564893 1.6910013616382942 5.453994817973364 1.693945452743119 Q 5.445539798630938 1.7371254556138833 5.471062005352799 1.768107175450694 Q 5.496584212074659 1.799088895287505 5.548596488259897 1.8092733504045175 L 5.963713334040199 1.8905568318101076 Q 6.005383691804917 1.8650895727553827 6.023147850743606 1.8446216794294685 Q 6.040912009682295 1.8241537861035546 6.045715997945036 1.7996196935633475 Q 6.046100317006056 1.797656966160131 6.051988499215706 1.7988099233431891 Q 6.0578766814253555 1.799962880526247 6.057492362364336 1.8019256079294637 L 6.048440298381322 1.8429507238665017 Q 6.044960860783087 1.8555162924568995 6.040156872520345 1.8800503849971066 L 6.026534111903219 1.9548261858498455 Q 6.024825242177692 1.968757437202871 6.020982051567499 1.9883847112350366 Q 6.0194447753234215 1.9962356208479028 6.01475068239495 1.9993924375322973 Q 6.010056589466478 2.002549254216692 5.995377266040474 2.009864817336149 Q 5.969539188884818 2.0221283310617673 5.9603431625583845 2.027460600728948 L 5.502291848060335 2.2903407888120544 L 5.81927232367981 2.3524083171666774 Q 5.872265963566657 2.3627849318141996 5.906915747987727 2.3471518758246175 Q 5.941565532408796 2.331518819835035 5.9490597540986725 2.293245635472312 Q 5.949444073159692 2.2912829080690953 5.955332255369342 2.2924358652521533 Q 5.961220437578992 2.2935888224352112 5.960836118517972 2.295551549838428 L 5.951591895004448 2.3375580294770746 Q 5.943480062624922 2.36857734886752 5.939252552953709 2.390167350302902 Q 5.935409362343516 2.409794624335068 5.930454346648385 2.445508036653985 L 5.922788531477058 2.489861562756867 Q 5.922404212416038 2.4918242901600838 5.916516030206388 2.490671332977026 M 5.604809546568463 3.2291329186648863 Q 5.599324030311063 3.226702052278223 5.600134319106618 3.22487354685909 Q 5.612693795437712 3.196531712862528 5.595726564019378 3.139792281617611 Q 5.578759332601043 3.0830528503726935 5.539912729368389 3.0275556304667854 L 5.42296777527265 2.861978223458627 L 5.2190894210393175 2.7716310227543004 Q 5.190747587042756 2.759071546423206 5.175922327119938 2.7579707884021567 Q 5.161097067197121 2.7568700303811076 5.150651209881518 2.768100972680936 Q 5.140205352565916 2.779331914980764 5.127240731837044 2.8085880016868927 Q 5.126025298643712 2.811330759815592 5.120539782386313 2.8088998934289284 Q 5.115054266128913 2.806469027042265 5.116269699322245 2.8037262689135654 Q 5.1296394644488945 2.7735559294978707 5.138251460716229 2.756590272413884 L 5.1695515432590895 2.688426463594173 L 5.198617975985039 2.6203666186884735 Q 5.205806611231018 2.6016764200993663 5.219581520755444 2.5705918279741047 Q 5.220391809550998 2.5687633225549718 5.225877325808398 2.5711941889416354 Q 5.2313628420657965 2.5736250553282987 5.230552553270242 2.575453560747432 Q 5.21758793254137 2.6047096474535603 5.216082030122544 2.6204491600859443 Q 5.214576127703718 2.636188672718328 5.225604497804658 2.647091656388714 Q 5.236632867905597 2.6579946400591 5.264060449192592 2.6701489719924174 L 5.448739496525028 2.7519881403434217 L 5.715425943672105 2.710475023042146 Q 5.7834429435447205 2.7001460478592656 5.81393966725551 2.6868626054248743 Q 5.844436390966299 2.6735791629904826 5.851323845728512 2.6580368669278522 Q 5.852539278921844 2.6552941087991524 5.858024795179243 2.657724975185816 Q 5.863510311436642 2.6601558415724793 5.86229487824331 2.662898599701179 L 5.848821149202649 2.690835289299964 Q 5.838079467032417 2.7101385601148724 5.8344331674524215 2.718366834500971 Q 5.820253113530217 2.750365679335799 5.795342088696052 2.8115166469627435 L 5.76951681115232 2.8722624701919104 Q 5.768706522356766 2.8740909756110433 5.763221006099367 2.87166010922438 Q 5.757735489841967 2.8692292428377164 5.758545778637522 2.8674007374185835 Q 5.765433233399735 2.8518584413559527 5.7619680835020874 2.839931885432853 Q 5.758502933604439 2.828005329509753 5.746617648380074 2.822738452338649 Q 5.73198960502701 2.816256141974213 5.706204023847665 2.8201425031570446 L 5.453220656085815 2.857883934447771 L 5.5594850468922505 3.0056028541789184 Q 5.589687520082759 3.0485191752371903 5.6189436067888865 3.0614837959660623 Q 5.640885671818483 3.071207261512716 5.658188424455835 3.063014902196217 Q 5.675491177093186 3.0548225428797187 5.686430075833172 3.0301377197214228 Q 5.6876455090265035 3.027394961592723 5.693131025283902 3.0298258279793866 Q 5.698616541541302 3.0322566943660503 5.69740110834797 3.0349994524947497 L 5.675014202556209 3.083049701703998 Q 5.654549054839323 3.124295037548503 5.6399638565193415 3.157208135092897 Q 5.633076401757129 3.172750431155528 5.625181441629608 3.195502784980679 L 5.611105351621416 3.229735279632417 Q 5.610295062825862 3.23156378505155 5.604809546568463 3.2291329186648863" fill="#231f20" fill-rule="nonzero"></path></g><g clip-path="url(#SvgjsClipPath1013)"><g clip-path="url(#a86958605-53e5-4bcc-827d-7ac8354f97ee16d0045d-b98e-4e39-a26e-4bdf0c58d0ff)"><path d=" M 3.8093232745437295 1.9802602192094179 L 0.7976891785843709 1.9802602192094179 L 0.7976891785843709 0.15459297011453074 C 0.7976891785843709 0.08141063492426052 0.857014751449326 0.022085062059305865 0.9301995509402049 0.022085062059305865 L 3.6768153664885044 0.022085062059305865 C 3.7499952373781653 0.022085062059305865 3.8093232745437295 0.08141063492426052 3.8093232745437295 0.15459297011453074 Z" fill="#5a5758" transform="matrix(1,0,0,1,0,0)" fill-rule="nonzero"></path></g><g clip-path="url(#a86958605-53e5-4bcc-827d-7ac8354f97ee16d0045d-b98e-4e39-a26e-4bdf0c58d0ff)"><path d=" M 3.8093232745437295 1.9802602192094179 L 0.7976891785843709 1.9802602192094179 L 0.7976891785843709 0.15459297011453074 C 0.7976891785843709 0.08141063492426052 0.857014751449326 0.022085062059305865 0.9301995509402049 0.022085062059305865 L 3.6768153664885044 0.022085062059305865 C 3.7499952373781653 0.022085062059305865 3.8093232745437295 0.08141063492426052 3.8093232745437295 0.15459297011453074 Z" fill="none" transform="matrix(1,0,0,1,0,0)" fill-rule="nonzero" stroke-dasharray="none" stroke-miterlimit="10" stroke-linejoin="miter" stroke-linecap="butt" stroke-width="0.04417012411861136" stroke="#231f20"></path></g><g clip-path="url(#a86958605-53e5-4bcc-827d-7ac8354f97ee16d0045d-b98e-4e39-a26e-4bdf0c58d0ff)"><path d=" M 0.7976891785843707 1.9802602192094179 L 3.8093232745437295 1.9802602192094179 L 3.8093232745437295 2.1520293645698043 C 3.8093232745437295 2.2252116997600746 3.7500001659793836 2.284537272625029 3.6768153664885044 2.284537272625029 L 0.9302020152408139 2.284537272625029 C 0.8570147514493255 2.284537272625029 0.7976891785843707 2.2252116997600746 0.7976891785843707 2.1520293645698043 Z" fill="#ffffff" transform="matrix(1,0,0,1,0,0)" fill-rule="nonzero"></path></g><g clip-path="url(#a86958605-53e5-4bcc-827d-7ac8354f97ee16d0045d-b98e-4e39-a26e-4bdf0c58d0ff)"><path d=" M 0.7976891785843707 1.9802602192094179 L 3.8093232745437295 1.9802602192094179 L 3.8093232745437295 2.1520293645698043 C 3.8093232745437295 2.2252116997600746 3.7500001659793836 2.284537272625029 3.6768153664885044 2.284537272625029 L 0.9302020152408139 2.284537272625029 C 0.8570147514493255 2.284537272625029 0.7976891785843707 2.2252116997600746 0.7976891785843707 2.1520293645698043 Z" fill="none" transform="matrix(1,0,0,1,0,0)" fill-rule="nonzero" stroke-dasharray="none" stroke-miterlimit="10" stroke-linejoin="miter" stroke-linecap="butt" stroke-width="0.04417012411861136" stroke="#231f20"></path></g><g clip-path="url(#SvgjsClipPath100016d0045d-b98e-4e39-a26e-4bdf0c58d0ff)"><path d=" M 2.1431558473646137 2.132395750176538 L 2.4638648572421142 2.132395750176538" fill="none" transform="matrix(1,0,0,1,0,0)" fill-rule="nonzero" stroke-dasharray="none" stroke-miterlimit="10" stroke-linejoin="miter" stroke-linecap="butt" stroke-width="0.04417012411861136" stroke="#231f20"></path></g><g clip-path="url(#SvgjsClipPath100016d0045d-b98e-4e39-a26e-4bdf0c58d0ff)"><path d=" M 0.9526320793854022 1.8234469142460326 L 1.0469260778943592 1.8234469142460326 L 1.0469260778943592 0.2808785191316229 L 0.9526320793854022 0.2808785191316229 Z" fill="#d3d2d2" transform="matrix(1,0,0,1,0,0)" fill-rule="nonzero" stroke-dasharray="none" stroke-miterlimit="10" stroke-linejoin="miter" stroke-linecap="butt" stroke-width="0.04417012411861136" stroke="#231f20"></path></g><g clip-path="url(#SvgjsClipPath100016d0045d-b98e-4e39-a26e-4bdf0c58d0ff)"><path d=" M 0.9526320793854022 0.2763787062192941 L 3.654375445141479 0.2763787062192941 L 3.654375445141479 0.18208224340972756 L 0.9526320793854022 0.18208224340972756 Z" fill="#d3d2d2" transform="matrix(1,0,0,1,0,0)" fill-rule="nonzero" stroke-dasharray="none" stroke-miterlimit="10" stroke-linejoin="miter" stroke-linecap="butt" stroke-width="0.04412576670764645" stroke="#231f20"></path></g><g clip-path="url(#SvgjsClipPath100016d0045d-b98e-4e39-a26e-4bdf0c58d0ff)"><path d=" M 1.0469280791394049 0.29721602530704083 L 1.0469280791394049 0.18587153088329517" fill="none" transform="matrix(1,0,0,1,0,0)" fill-rule="nonzero" stroke-dasharray="none" stroke-miterlimit="10" stroke-linejoin="miter" stroke-linecap="butt" stroke-width="0.04417012411861136" stroke="#231f20"></path></g><g clip-path="url(#SvgjsClipPath100016d0045d-b98e-4e39-a26e-4bdf0c58d0ff)"><path d=" M 1.0267779561138546 0.2562305844387895 L 0.9727826654665161 0.2562305844387895 L 0.9727826654665161 0.2022328294908419 L 1.0267779561138546 0.2022328294908419 Z" fill="#f9b25f" transform="matrix(1,0,0,1,0,0)" fill-rule="nonzero"></path></g><g clip-path="url(#SvgjsClipPath100016d0045d-b98e-4e39-a26e-4bdf0c58d0ff)"><path d=" M 3.654375445141479 1.8234469142460326 L 1.0469260778943592 1.8234469142460326 L 1.0469260778943592 0.2808785191316229 L 3.654375445141479 0.2808785191316229 Z" fill="#ffffff" transform="matrix(1,0,0,1,0,0)" fill-rule="nonzero" stroke-dasharray="none" stroke-miterlimit="10" stroke-linejoin="miter" stroke-linecap="butt" stroke-width="0.04417012411861136" stroke="#231f20"></path></g><g clip-path="url(#SvgjsClipPath100016d0045d-b98e-4e39-a26e-4bdf0c58d0ff)"><path d=" M 1.0469280791394049 0.5093965346580361 L 3.654377446386525 0.5093965346580361" fill="none" transform="matrix(1,0,0,1,0,0)" fill-rule="nonzero" stroke-dasharray="none" stroke-miterlimit="10" stroke-linejoin="miter" stroke-linecap="butt" stroke-width="0.04417012411861136" stroke="#231f20"></path></g><g clip-path="url(#SvgjsClipPath100016d0045d-b98e-4e39-a26e-4bdf0c58d0ff)"><path d=" M 1.5174966980076319 0.2853688705106098 L 1.5174966980076319 0.5093959745888759" fill="none" transform="matrix(1,0,0,1,0,0)" fill-rule="nonzero" stroke-dasharray="none" stroke-miterlimit="10" stroke-linejoin="miter" stroke-linecap="butt" stroke-width="0.04417012411861136" stroke="#231f20"></path></g><g clip-path="url(#SvgjsClipPath100016d0045d-b98e-4e39-a26e-4bdf0c58d0ff)"><path d=" M 1.6040973665164577 0.397382702584323 L 3.568551561618713 0.397382702584323" fill="none" transform="matrix(1,0,0,1,0,0)" fill-rule="nonzero" stroke-dasharray="none" stroke-miterlimit="10" stroke-linejoin="miter" stroke-linecap="butt" stroke-width="0.04417012411861136" stroke="#231f20"></path></g><g clip-path="url(#SvgjsClipPath100016d0045d-b98e-4e39-a26e-4bdf0c58d0ff)"><path d=" M 1.181245246897318 0.42407656322939064 L 1.1272499562499796 0.42407656322939064 L 1.1272499562499796 0.37007880828144263 L 1.181245246897318 0.37007880828144263 Z M 1.3065623257750096 0.42407656322939064 L 1.2525670351276712 0.42407656322939064 L 1.2525670351276712 0.37007880828144263 L 1.3065623257750096 0.37007880828144263 Z M 1.431879404652701 0.42407656322939064 L 1.3778841140053626 0.42407656322939064 L 1.3778841140053626 0.37007880828144263 L 1.431879404652701 0.37007880828144263 Z" fill="#231f20" transform="matrix(1,0,0,1,0,0)" fill-rule="nonzero"></path></g><g clip-path="url(#SvgjsClipPath100016d0045d-b98e-4e39-a26e-4bdf0c58d0ff)"><path d=" M 3.5086859931278496 1.156407561057579 L 1.192610601306771 1.156407561057579 L 1.192610601306771 0.7846505640612975 L 3.5086859931278496 0.7846505640612975 Z" fill="#75bebc" transform="matrix(1,0,0,1,0,0)" fill-rule="nonzero"></path></g><g clip-path="url(#SvgjsClipPath100016d0045d-b98e-4e39-a26e-4bdf0c58d0ff)"><path d=" M 1.7156916503625905 1.2775690088267508 L 3.5086921305824323 1.2775690088267508" fill="none" transform="matrix(1,0,0,1,0,0)" fill-rule="nonzero" stroke-dasharray="none" stroke-miterlimit="10" stroke-linejoin="miter" stroke-linecap="butt" stroke-width="0.04378815752419132" stroke="#231f20"></path></g><g clip-path="url(#SvgjsClipPath100016d0045d-b98e-4e39-a26e-4bdf0c58d0ff)"><path d=" M 1.7156916503625905 1.3968168134235892 L 3.5086921305824323 1.3968168134235892" fill="none" transform="matrix(1,0,0,1,0,0)" fill-rule="nonzero" stroke-dasharray="none" stroke-miterlimit="10" stroke-linejoin="miter" stroke-linecap="butt" stroke-width="0.04378815752419132" stroke="#231f20"></path></g><g clip-path="url(#SvgjsClipPath100016d0045d-b98e-4e39-a26e-4bdf0c58d0ff)"><path d=" M 1.7156916503625905 1.5160664662505048 L 3.5086921305824323 1.5160664662505048" fill="none" transform="matrix(1,0,0,1,0,0)" fill-rule="nonzero" stroke-dasharray="none" stroke-miterlimit="10" stroke-linejoin="miter" stroke-linecap="butt" stroke-width="0.04378815752419132" stroke="#231f20"></path></g><g clip-path="url(#SvgjsClipPath100016d0045d-b98e-4e39-a26e-4bdf0c58d0ff)"><path d=" M 1.7156916503625905 1.6353124226172655 L 3.5086921305824323 1.6353124226172655" fill="none" transform="matrix(1,0,0,1,0,0)" fill-rule="nonzero" stroke-dasharray="none" stroke-miterlimit="10" stroke-linejoin="miter" stroke-linecap="butt" stroke-width="0.04378815752419132" stroke="#231f20"></path></g><g clip-path="url(#SvgjsClipPath100016d0045d-b98e-4e39-a26e-4bdf0c58d0ff)"><path d=" M 1.6269361907696642 1.6620401529471704 L 1.1926130656073801 1.6620401529471704 L 1.1926130656073801 1.2551446935648545 L 1.6269361907696642 1.2551446935648545 Z" fill="#f9b25f" transform="matrix(1,0,0,1,0,0)" fill-rule="nonzero"></path></g><g clip-path="url(#SvgjsClipPath100016d0045d-b98e-4e39-a26e-4bdf0c58d0ff)"><path d=" M 2.0015098833622176 0.6921924695061658 L 1.9475145927148791 0.6921924695061658 L 1.9475145927148791 0.638197178858827 L 2.0015098833622176 0.638197178858827 Z M 2.1268885697551383 0.6921924695061658 L 2.0728932791077996 0.6921924695061658 L 2.0728932791077996 0.638197178858827 L 2.1268885697551383 0.638197178858827 Z M 2.2522672561480586 0.6921924695061658 L 2.1982719655007203 0.6921924695061658 L 2.1982719655007203 0.638197178858827 L 2.252267256148059 0.638197178858827 Z M 2.3776484068415886 0.6921924695061658 L 2.32365311619425 0.6921924695061658 L 2.32365311619425 0.638197178858827 L 2.3776484068415886 0.638197178858827 Z M 2.5030270932345093 0.6921924695061658 L 2.449031802587171 0.6921924695061658 L 2.449031802587171 0.638197178858827 L 2.5030270932345093 0.638197178858827 Z M 2.62840577962743 0.6921924695061658 L 2.5744104889800914 0.6921924695061658 L 2.5744104889800914 0.638197178858827 L 2.62840577962743 0.638197178858827 Z M 2.7537844660203503 0.6921924695061658 L 2.699789175373012 0.6921924695061658 L 2.699789175373012 0.638197178858827 L 2.7537844660203503 0.638197178858827 Z" fill="#231f20" transform="matrix(1,0,0,1,0,0)" fill-rule="nonzero"></path></g><g clip-path="url(#SvgjsClipPath100016d0045d-b98e-4e39-a26e-4bdf0c58d0ff)"><path d=" M 2.8237188530077453 2.814568904845929 L 1.783286207218527 2.814568904845929 L 1.783286207218527 2.6869698836041542 L 2.8237188530077453 2.6869698836041542 Z" fill="#ffffff" transform="matrix(1,0,0,1,0,0)" fill-rule="nonzero"></path></g><g clip-path="url(#b86958605-53e5-4bcc-827d-7ac8354f97ee16d0045d-b98e-4e39-a26e-4bdf0c58d0ff)"><path d=" M 2.8237188530077453 2.814568904845929 L 1.783286207218527 2.814568904845929 L 1.783286207218527 2.6869698836041542 L 2.8237188530077453 2.6869698836041542 Z" fill="none" transform="matrix(1,0,0,1,0,0)" fill-rule="nonzero" stroke-dasharray="none" stroke-miterlimit="10" stroke-linejoin="miter" stroke-linecap="butt" stroke-width="0.04417012411861136" stroke="#231f20"></path></g><g clip-path="url(#SvgjsClipPath100016d0045d-b98e-4e39-a26e-4bdf0c58d0ff)"><path d=" M 2.556068928966902 2.284534657231611 L 2.6357619463665767 2.686967268210736 L 1.9712583585049503 2.686967268210736 L 2.0509513759046256 2.284534657231611 Z" fill="#ffffff" transform="matrix(1,0,0,1,0,0)" fill-rule="nonzero"></path></g><g clip-path="url(#SvgjsClipPath100016d0045d-b98e-4e39-a26e-4bdf0c58d0ff)"><path d=" M 2.556068928966902 2.284534657231611 L 2.6357619463665767 2.686967268210736 L 1.9712583585049503 2.686967268210736 L 2.0509513759046256 2.284534657231611 Z" fill="none" transform="matrix(1,0,0,1,0,0)" fill-rule="nonzero" stroke-dasharray="none" stroke-miterlimit="10" stroke-linejoin="miter" stroke-linecap="butt" stroke-width="0.04417012411861136" stroke="#231f20"></path></g><g clip-path="url(#c86958605-53e5-4bcc-827d-7ac8354f97ee16d0045d-b98e-4e39-a26e-4bdf0c58d0ff)"><path d=" M 0 2.815746840537108 L 4.607009988827491 2.815746840537108" fill="none" transform="matrix(1,0,0,1,0,0)" fill-rule="nonzero" stroke-dasharray="none" stroke-miterlimit="10" stroke-linejoin="miter" stroke-linecap="butt" stroke-width="0.04417012411861136" stroke="#231f20"></path></g></g><g transform="matrix(-0.7864878550810651,-0.617605743018947,0.617605743018947,-0.7864878550810651,-2.9064825519409916,6.199087713046312)"><g clip-path="url(#SvgjsClipPath1014)"><path d=" M -0.3816996581065827 3.6931090096941976 C -0.37606337396865164 3.6931090096941976 -0.3731999339686516 3.6892622483148876 -0.36792196155485857 3.6822833131424737 L -0.3149579918996861 3.6115157296941978 C -0.3120945518996861 3.6077575283148873 -0.31075291879623784 3.6041795007286805 -0.31075291879623784 3.600331721418336 C -0.31075291879623784 3.5964849600390254 -0.3120945518996861 3.592905914521784 -0.3149579918996861 3.589148731073508 L -0.36792196155485857 3.518380638659715 C -0.3731999339686516 3.511402314245922 -0.37606337396865164 3.5075552474873013 -0.3816996581065827 3.5075552474873013 C -0.3874255201755482 3.5075552474873013 -0.39028896017554815 3.511402314245922 -0.3955669325893413 3.518380638659715 L -0.44853120762382404 3.589148731073508 C -0.4513941386583068 3.592905914521784 -0.45273617893416884 3.5964849600390254 -0.45273617893416884 3.600331721418336 C -0.45273617893416884 3.6041795007286805 -0.4513941386583068 3.6077575283148873 -0.44853120762382404 3.6115157296941978 L -0.3955669325893413 3.6822833131424737 C -0.39028896017554815 3.6892622483148876 -0.3874255201755482 3.6931090096941976 -0.3816996581065827 3.6931090096941976 Z" fill="#231f20" transform="matrix(1,0,0,1,0,0)" fill-rule="nonzero"></path></g></g><g transform="matrix(0.7864878550810651,-0.617605743018947,-0.617605743018947,-0.7864878550810651,3.289730845539664,9.515883342201814)"><g clip-path="url(#SvgjsClipPath1015)"><path d=" M 4.9887096469340735 3.6931090096941976 C 4.994345931072004 3.6931090096941976 4.997209371072004 3.6892622483148876 5.0024873434857975 3.6822833131424737 L 5.05545131314097 3.6115157296941978 C 5.058314753140969 3.6077575283148873 5.059656386244418 3.6041795007286805 5.059656386244418 3.600331721418336 C 5.059656386244418 3.5964849600390254 5.058314753140969 3.592905914521784 5.05545131314097 3.589148731073508 L 5.0024873434857975 3.518380638659715 C 4.997209371072004 3.511402314245922 4.994345931072004 3.5075552474873013 4.9887096469340735 3.5075552474873013 C 4.982983784865108 3.5075552474873013 4.9801203448651075 3.511402314245922 4.974842372451315 3.518380638659715 L 4.9218780974168315 3.589148731073508 C 4.919015166382349 3.592905914521784 4.917673126106487 3.5964849600390254 4.917673126106487 3.600331721418336 C 4.917673126106487 3.6041795007286805 4.919015166382349 3.6077575283148873 4.9218780974168315 3.6115157296941978 L 4.974842372451315 3.6822833131424737 C 4.9801203448651075 3.6892622483148876 4.982983784865108 3.6931090096941976 4.9887096469340735 3.6931090096941976 Z" fill="#231f20" transform="matrix(1,0,0,1,0,0)" fill-rule="nonzero"></path></g></g></g><defs><clipPath id="SvgjsClipPath1013"><path d=" M 0 0 h 4.607009988827491 v 2.837831902596414 h -4.607009988827491 Z"></path></clipPath><clipPath id="a86958605-53e5-4bcc-827d-7ac8354f97ee16d0045d-b98e-4e39-a26e-4bdf0c58d0ff"><path d=" M 0 2.837831902596414 L 4.607009988827491 2.837831902596414 L 4.607009988827491 0 L 0 0 Z"></path></clipPath><clipPath id="SvgjsClipPath100016d0045d-b98e-4e39-a26e-4bdf0c58d0ff"><path d=" M 0 0 L 4.607009988827491 0 L 4.607009988827491 2.837831902596414 L 0 2.837831902596414 Z"></path></clipPath><clipPath id="b86958605-53e5-4bcc-827d-7ac8354f97ee16d0045d-b98e-4e39-a26e-4bdf0c58d0ff"><path d=" M 0 2.837831902596414 L 4.607009988827491 2.837831902596414 L 4.607009988827491 0 L 0 0 Z"></path></clipPath><clipPath id="c86958605-53e5-4bcc-827d-7ac8354f97ee16d0045d-b98e-4e39-a26e-4bdf0c58d0ff"><path d=" M 0 2.837831902596414 L 4.607009988827491 2.837831902596414 L 4.607009988827491 0 L 0 0 Z"></path></clipPath><clipPath id="SvgjsClipPath1014"><path d=" M -0.5242100029341689 3.454343106245922 h 0.2850206896551724 v 0.29519999999999996 h -0.2850206896551724 Z"></path></clipPath><clipPath id="SvgjsClipPath1015"><path d=" M 4.846199302106487 3.454343106245922 h 0.2850206896551724 v 0.29519999999999996 h -0.2850206896551724 Z"></path></clipPath></defs></svg>